GyrOrbital-Bold.ufo
<glyph name="quotedbl" format="1">
  <advance width="350"/>
  <unicode hex="0022"/>
  <outline>
    <contour>
      <point x="225" y="230" type="curve" smooth="yes"/>
      <point x="236" y="230"/>
      <point x="245" y="239"/>
      <point x="245" y="250" type="curve" smooth="yes"/>
      <point x="245" y="480" type="line" smooth="yes"/>
      <point x="245" y="481" type="line"/>
      <point x="245" y="482"/>
      <point x="245" y="483"/>
      <point x="245" y="482" type="curve"/>
      <point x="245" y="482"/>
      <point x="245" y="484"/>
      <point x="244" y="486" type="curve"/>
      <point x="244" y="487"/>
      <point x="244" y="488"/>
      <point x="243" y="488" type="curve"/>
      <point x="243" y="489"/>
      <point x="242" y="490"/>
      <point x="242" y="491" type="curve"/>
      <point x="241" y="491"/>
      <point x="241" y="492"/>
      <point x="241" y="492" type="curve"/>
      <point x="240" y="493"/>
      <point x="239" y="494"/>
      <point x="238" y="495" type="curve"/>
      <point x="235" y="497"/>
      <point x="236" y="497"/>
      <point x="237" y="495" type="curve"/>
      <point x="235" y="498"/>
      <point x="232" y="499"/>
      <point x="229" y="499" type="curve"/>
      <point x="231" y="499"/>
      <point x="230" y="499"/>
      <point x="228" y="500" type="curve"/>
      <point x="225" y="500" type="line" smooth="yes"/>
      <point x="224" y="500" type="line"/>
      <point x="223" y="500"/>
      <point x="223" y="500"/>
      <point x="223" y="500" type="curve"/>
      <point x="223" y="500"/>
      <point x="221" y="500"/>
      <point x="219" y="499" type="curve"/>
      <point x="219" y="499"/>
      <point x="218" y="499"/>
      <point x="217" y="498" type="curve"/>
      <point x="216" y="498"/>
      <point x="215" y="497"/>
      <point x="214" y="497" type="curve"/>
      <point x="214" y="497"/>
      <point x="213" y="496"/>
      <point x="213" y="496" type="curve"/>
      <point x="212" y="495"/>
      <point x="211" y="494"/>
      <point x="210" y="493" type="curve"/>
      <point x="208" y="490"/>
      <point x="209" y="491"/>
      <point x="210" y="492" type="curve"/>
      <point x="208" y="491"/>
      <point x="206" y="488"/>
      <point x="206" y="485" type="curve"/>
      <point x="140" y="341" type="line"/>
      <point x="140" y="480" type="line" smooth="yes"/>
      <point x="140" y="491"/>
      <point x="131" y="500"/>
      <point x="120" y="500" type="curve" smooth="yes"/>
      <point x="109" y="500"/>
      <point x="100" y="491"/>
      <point x="100" y="480" type="curve" smooth="yes"/>
      <point x="100" y="250" type="line" smooth="yes"/>
      <point x="100" y="249" type="line"/>
      <point x="100" y="248"/>
      <point x="100" y="247"/>
      <point x="100" y="248" type="curve"/>
      <point x="100" y="248"/>
      <point x="100" y="246"/>
      <point x="101" y="244" type="curve"/>
      <point x="101" y="243"/>
      <point x="101" y="242"/>
      <point x="102" y="242" type="curve"/>
      <point x="102" y="241"/>
      <point x="103" y="240"/>
      <point x="103" y="239" type="curve"/>
      <point x="104" y="239"/>
      <point x="104" y="238"/>
      <point x="104" y="238" type="curve"/>
      <point x="105" y="237"/>
      <point x="106" y="236"/>
      <point x="107" y="235" type="curve"/>
      <point x="110" y="233"/>
      <point x="109" y="233"/>
      <point x="108" y="235" type="curve"/>
      <point x="110" y="232"/>
      <point x="113" y="231"/>
      <point x="116" y="231" type="curve"/>
      <point x="114" y="231"/>
      <point x="115" y="231"/>
      <point x="117" y="230" type="curve"/>
      <point x="120" y="230" type="line" smooth="yes"/>
      <point x="121" y="230" type="line"/>
      <point x="122" y="230"/>
      <point x="122" y="230"/>
      <point x="122" y="230" type="curve"/>
      <point x="122" y="230"/>
      <point x="124" y="230"/>
      <point x="126" y="231" type="curve"/>
      <point x="126" y="231"/>
      <point x="127" y="231"/>
      <point x="128" y="232" type="curve"/>
      <point x="129" y="232"/>
      <point x="130" y="233"/>
      <point x="131" y="233" type="curve"/>
      <point x="131" y="233"/>
      <point x="132" y="234"/>
      <point x="132" y="234" type="curve"/>
      <point x="133" y="235"/>
      <point x="134" y="236"/>
      <point x="135" y="237" type="curve"/>
      <point x="137" y="240"/>
      <point x="136" y="239"/>
      <point x="135" y="238" type="curve"/>
      <point x="137" y="239"/>
      <point x="139" y="242"/>
      <point x="139" y="245" type="curve"/>
      <point x="205" y="389" type="line"/>
      <point x="205" y="250" type="line" smooth="yes"/>
      <point x="205" y="239"/>
      <point x="214" y="230"/>
    </contour>
  </outline>
</glyph>
<glyph name="numbersign" format="1">
  <advance width="350"/>
  <unicode hex="0023"/>
  <outline>
    <contour>
      <point x="280" y="0" type="line" smooth="yes"/>
      <point x="291" y="0"/>
      <point x="300" y="9"/>
      <point x="300" y="20" type="curve" smooth="yes"/>
      <point x="300" y="31"/>
      <point x="291" y="40"/>
      <point x="280" y="40" type="curve" smooth="yes"/>
      <point x="199" y="40" type="line"/>
      <point x="298" y="472" type="line"/>
      <point x="299" y="474"/>
      <point x="300" y="477"/>
      <point x="300" y="480" type="curve" smooth="yes"/>
      <point x="300" y="491"/>
      <point x="291" y="500"/>
      <point x="280" y="500" type="curve" smooth="yes"/>
      <point x="70" y="500" type="line" smooth="yes"/>
      <point x="59" y="500"/>
      <point x="50" y="491"/>
      <point x="50" y="480" type="curve" smooth="yes"/>
      <point x="50" y="469"/>
      <point x="59" y="460"/>
      <point x="70" y="460" type="curve" smooth="yes"/>
      <point x="151" y="460" type="line"/>
      <point x="52" y="28" type="line"/>
      <point x="51" y="26"/>
      <point x="50" y="23"/>
      <point x="50" y="20" type="curve" smooth="yes"/>
      <point x="50" y="9"/>
      <point x="59" y="0"/>
      <point x="70" y="0" type="curve" smooth="yes"/>
    </contour>
    <contour>
      <point x="256" y="460" type="line"/>
      <point x="160" y="40" type="line"/>
      <point x="94" y="40" type="line"/>
      <point x="190" y="460" type="line"/>
    </contour>
  </outline>
</glyph>
<glyph name="ampersand" format="1">
  <advance width="350"/>
  <unicode hex="0026"/>
  <outline>
    <contour>
      <point x="235" y="460" type="line"/>
      <point x="145" y="362" type="line"/>
      <point x="101" y="460" type="line"/>
    </contour>
    <contour>
      <point x="162" y="40" type="line"/>
      <point x="90" y="40" type="line"/>
      <point x="90" y="242" type="line"/>
      <point x="135" y="291" type="line"/>
      <point x="206" y="135" type="line"/>
    </contour>
    <contour>
      <point x="175" y="0" type="line" smooth="yes"/>
      <point x="176" y="0" type="line"/>
      <point x="177" y="0"/>
      <point x="177" y="0"/>
      <point x="177" y="0" type="curve"/>
      <point x="177" y="0"/>
      <point x="179" y="0"/>
      <point x="181" y="1" type="curve"/>
      <point x="181" y="1"/>
      <point x="182" y="1"/>
      <point x="183" y="2" type="curve"/>
      <point x="184" y="2"/>
      <point x="185" y="3"/>
      <point x="186" y="3" type="curve"/>
      <point x="186" y="3"/>
      <point x="187" y="4"/>
      <point x="187" y="4" type="curve"/>
      <point x="188" y="5"/>
      <point x="189" y="6"/>
      <point x="190" y="7" type="curve"/>
      <point x="192" y="10"/>
      <point x="191" y="9"/>
      <point x="190" y="8" type="curve"/>
      <point x="192" y="9"/>
      <point x="194" y="12"/>
      <point x="194" y="15" type="curve"/>
      <point x="228" y="88" type="line"/>
      <point x="262" y="12" type="line" smooth="yes"/>
      <point x="266" y="2"/>
      <point x="278" y="-3"/>
      <point x="288" y="2" type="curve" smooth="yes"/>
      <point x="298" y="6"/>
      <point x="303" y="18"/>
      <point x="298" y="28" type="curve" smooth="yes"/>
      <point x="249" y="135" type="line"/>
      <point x="298" y="242" type="line" smooth="yes"/>
      <point x="303" y="252"/>
      <point x="298" y="264"/>
      <point x="288" y="268" type="curve" smooth="yes"/>
      <point x="278" y="273"/>
      <point x="266" y="268"/>
      <point x="262" y="258" type="curve" smooth="yes"/>
      <point x="228" y="182" type="line"/>
      <point x="163" y="323" type="line"/>
      <point x="293" y="465" type="line"/>
      <point x="294" y="466"/>
      <point x="294" y="466"/>
      <point x="295" y="467" type="curve"/>
      <point x="295" y="467" type="line" smooth="yes"/>
      <point x="296" y="468" type="line"/>
      <point x="296" y="469"/>
      <point x="297" y="469"/>
      <point x="297" y="470" type="curve"/>
      <point x="296" y="468"/>
      <point x="297" y="470"/>
      <point x="298" y="472" type="curve"/>
      <point x="299" y="474"/>
      <point x="300" y="477"/>
      <point x="300" y="480" type="curve" smooth="yes"/>
      <point x="300" y="486"/>
      <point x="297" y="491"/>
      <point x="293" y="495" type="curve"/>
      <point x="293" y="495" type="line" smooth="yes"/>
      <point x="292" y="496" type="line"/>
      <point x="291" y="497"/>
      <point x="291" y="497"/>
      <point x="290" y="497" type="curve"/>
      <point x="292" y="496"/>
      <point x="290" y="497"/>
      <point x="288" y="498" type="curve"/>
      <point x="286" y="499"/>
      <point x="283" y="500"/>
      <point x="280" y="500" type="curve" smooth="yes"/>
      <point x="70" y="500" type="line" smooth="yes"/>
      <point x="68" y="500" type="line"/>
      <point x="64" y="499"/>
      <point x="65" y="499"/>
      <point x="67" y="500" type="curve"/>
      <point x="66" y="500"/>
      <point x="62" y="499"/>
      <point x="58" y="496" type="curve"/>
      <point x="61" y="497"/>
      <point x="59" y="497"/>
      <point x="58" y="496" type="curve"/>
      <point x="57" y="495"/>
      <point x="56" y="494"/>
      <point x="55" y="493" type="curve"/>
      <point x="55" y="493"/>
      <point x="54" y="492"/>
      <point x="54" y="492" type="curve"/>
      <point x="53" y="491"/>
      <point x="53" y="490"/>
      <point x="52" y="489" type="curve"/>
      <point x="52" y="489"/>
      <point x="52" y="488"/>
      <point x="51" y="487" type="curve"/>
      <point x="50" y="482"/>
      <point x="50" y="483"/>
      <point x="51" y="484" type="curve"/>
      <point x="50" y="484"/>
      <point x="50" y="483"/>
      <point x="50" y="482" type="curve"/>
      <point x="50" y="480" type="line" smooth="yes"/>
      <point x="50" y="478" type="line"/>
      <point x="51" y="474"/>
      <point x="51" y="475"/>
      <point x="50" y="477" type="curve"/>
      <point x="50" y="476"/>
      <point x="51" y="472"/>
      <point x="53" y="470" type="curve"/>
      <point x="117" y="330" type="line"/>
      <point x="57" y="265" type="line"/>
      <point x="56" y="264"/>
      <point x="56" y="264"/>
      <point x="55" y="263" type="curve"/>
      <point x="55" y="263" type="line" smooth="yes"/>
      <point x="54" y="262" type="line"/>
      <point x="54" y="261"/>
      <point x="53" y="261"/>
      <point x="53" y="260" type="curve"/>
      <point x="54" y="262"/>
      <point x="53" y="260"/>
      <point x="52" y="258" type="curve"/>
      <point x="51" y="256"/>
      <point x="50" y="253"/>
      <point x="50" y="250" type="curve" smooth="yes"/>
      <point x="50" y="20" type="line" smooth="yes"/>
      <point x="50" y="9"/>
      <point x="59" y="0"/>
      <point x="70" y="0" type="curve" smooth="yes"/>
    </contour>
  </outline>
</glyph>
<glyph name="quotesingle" format="1">
  <advance width="350"/>
  <unicode hex="0027"/>
  <outline>
    <contour>
      <point x="175" y="500" type="curve" smooth="yes"/>
      <point x="164" y="500"/>
      <point x="155" y="491"/>
      <point x="155" y="480" type="curve" smooth="yes"/>
      <point x="155" y="250" type="line" smooth="yes"/>
      <point x="155" y="239"/>
      <point x="164" y="230"/>
      <point x="175" y="230" type="curve" smooth="yes"/>
      <point x="186" y="230"/>
      <point x="195" y="239"/>
      <point x="195" y="250" type="curve" smooth="yes"/>
      <point x="195" y="480" type="line" smooth="yes"/>
      <point x="195" y="491"/>
      <point x="186" y="500"/>
    </contour>
  </outline>
</glyph>
<glyph name="parenleft" format="1">
  <advance width="349.961524227"/>
  <unicode hex="0028"/>
  <outline>
    <contour>
      <point x="183" y="2" type="curve" smooth="yes"/>
      <point x="193" y="6"/>
      <point x="198" y="18"/>
      <point x="193" y="28" type="curve" smooth="yes"/>
      <point x="92" y="250" type="line"/>
      <point x="193" y="472" type="line" smooth="yes"/>
      <point x="198" y="482"/>
      <point x="193" y="494"/>
      <point x="183" y="498" type="curve" smooth="yes"/>
      <point x="173" y="503"/>
      <point x="161" y="498"/>
      <point x="157" y="488" type="curve" smooth="yes"/>
      <point x="53" y="260" type="line"/>
      <point x="52" y="258"/>
      <point x="51" y="257"/>
      <point x="51" y="254" type="curve"/>
      <point x="51" y="257"/>
      <point x="51" y="255"/>
      <point x="51" y="254" type="curve"/>
      <point x="50" y="254"/>
      <point x="50" y="253"/>
      <point x="50" y="250" type="curve"/>
      <point x="50" y="250"/>
      <point x="50" y="249"/>
      <point x="50" y="248" type="curve"/>
      <point x="51" y="243"/>
      <point x="51" y="245"/>
      <point x="50" y="247" type="curve"/>
      <point x="51" y="244"/>
      <point x="52" y="241"/>
      <point x="53" y="240" type="curve"/>
      <point x="157" y="12" type="line" smooth="yes"/>
      <point x="161" y="2"/>
      <point x="173" y="-3"/>
    </contour>
  </outline>
</glyph>
<glyph name="parenright" format="1">
  <advance width="349.961524227"/>
  <unicode hex="0029"/>
  <outline>
    <contour>
      <point x="192.961524227" y="12" type="curve" smooth="yes"/>
      <point x="296.961524227" y="240" type="line"/>
      <point x="297.961524227" y="242"/>
      <point x="298.961524227" y="243"/>
      <point x="298.961524227" y="246" type="curve"/>
      <point x="298.961524227" y="243"/>
      <point x="298.961524227" y="245"/>
      <point x="298.961524227" y="246" type="curve"/>
      <point x="299.961524227" y="246"/>
      <point x="299.961524227" y="247"/>
      <point x="299.961524227" y="250" type="curve"/>
      <point x="299.961524227" y="250"/>
      <point x="299.961524227" y="251"/>
      <point x="299.961524227" y="252" type="curve"/>
      <point x="298.961524227" y="257"/>
      <point x="298.961524227" y="255"/>
      <point x="299.961524227" y="253" type="curve"/>
      <point x="298.961524227" y="256"/>
      <point x="297.961524227" y="259"/>
      <point x="296.961524227" y="260" type="curve"/>
      <point x="192.961524227" y="488" type="line" smooth="yes"/>
      <point x="188.961524227" y="498"/>
      <point x="176.961524227" y="503"/>
      <point x="166.961524227" y="498" type="curve" smooth="yes"/>
      <point x="156.961524227" y="494"/>
      <point x="151.961524227" y="482"/>
      <point x="156.961524227" y="472" type="curve" smooth="yes"/>
      <point x="257.961524227" y="250" type="line"/>
      <point x="156.961524227" y="28" type="line" smooth="yes"/>
      <point x="151.961524227" y="18"/>
      <point x="156.961524227" y="6"/>
      <point x="166.961524227" y="2" type="curve" smooth="yes"/>
      <point x="176.961524227" y="-3"/>
      <point x="188.961524227" y="2"/>
    </contour>
  </outline>
</glyph>
<glyph name="asterisk" format="1">
  <advance width="350"/>
  <unicode hex="002A"/>
  <outline>
    <contour>
      <point x="175" y="0" type="curve" smooth="yes"/>
      <point x="186" y="0"/>
      <point x="195" y="9"/>
      <point x="195" y="20" type="curve" smooth="yes"/>
      <point x="195" y="159" type="line"/>
      <point x="262" y="12" type="line" smooth="yes"/>
      <point x="266" y="2"/>
      <point x="278" y="-3"/>
      <point x="288" y="2" type="curve" smooth="yes"/>
      <point x="298" y="6"/>
      <point x="303" y="18"/>
      <point x="298" y="28" type="curve" smooth="yes"/>
      <point x="206" y="230" type="line"/>
      <point x="280" y="230" type="line" smooth="yes"/>
      <point x="291" y="230"/>
      <point x="300" y="239"/>
      <point x="300" y="250" type="curve" smooth="yes"/>
      <point x="300" y="261"/>
      <point x="291" y="270"/>
      <point x="280" y="270" type="curve" smooth="yes"/>
      <point x="206" y="270" type="line"/>
      <point x="298" y="472" type="line" smooth="yes"/>
      <point x="303" y="482"/>
      <point x="298" y="494"/>
      <point x="288" y="498" type="curve" smooth="yes"/>
      <point x="278" y="503"/>
      <point x="266" y="498"/>
      <point x="262" y="488" type="curve" smooth="yes"/>
      <point x="195" y="341" type="line"/>
      <point x="195" y="480" type="line" smooth="yes"/>
      <point x="195" y="491"/>
      <point x="186" y="500"/>
      <point x="175" y="500" type="curve" smooth="yes"/>
      <point x="164" y="500"/>
      <point x="155" y="491"/>
      <point x="155" y="480" type="curve" smooth="yes"/>
      <point x="155" y="341" type="line"/>
      <point x="88" y="488" type="line" smooth="yes"/>
      <point x="84" y="498"/>
      <point x="72" y="503"/>
      <point x="62" y="498" type="curve" smooth="yes"/>
      <point x="52" y="494"/>
      <point x="47" y="482"/>
      <point x="52" y="472" type="curve" smooth="yes"/>
      <point x="144" y="270" type="line"/>
      <point x="70" y="270" type="line" smooth="yes"/>
      <point x="59" y="270"/>
      <point x="50" y="261"/>
      <point x="50" y="250" type="curve" smooth="yes"/>
      <point x="50" y="239"/>
      <point x="59" y="230"/>
      <point x="70" y="230" type="curve" smooth="yes"/>
      <point x="144" y="230" type="line"/>
      <point x="52" y="28" type="line" smooth="yes"/>
      <point x="47" y="18"/>
      <point x="52" y="6"/>
      <point x="62" y="2" type="curve" smooth="yes"/>
      <point x="72" y="-3"/>
      <point x="84" y="2"/>
      <point x="88" y="12" type="curve" smooth="yes"/>
      <point x="155" y="159" type="line"/>
      <point x="155" y="20" type="line" smooth="yes"/>
      <point x="155" y="9"/>
      <point x="164" y="0"/>
    </contour>
  </outline>
</glyph>
<glyph name="plus" format="1">
  <advance width="350"/>
  <unicode hex="002B"/>
  <outline>
    <contour>
      <point x="175" y="0" type="curve" smooth="yes"/>
      <point x="186" y="0"/>
      <point x="195" y="9"/>
      <point x="195" y="20" type="curve" smooth="yes"/>
      <point x="195" y="230" type="line"/>
      <point x="280" y="230" type="line" smooth="yes"/>
      <point x="291" y="230"/>
      <point x="300" y="239"/>
      <point x="300" y="250" type="curve" smooth="yes"/>
      <point x="300" y="261"/>
      <point x="291" y="270"/>
      <point x="280" y="270" type="curve" smooth="yes"/>
      <point x="195" y="270" type="line"/>
      <point x="195" y="480" type="line" smooth="yes"/>
      <point x="195" y="491"/>
      <point x="186" y="500"/>
      <point x="175" y="500" type="curve" smooth="yes"/>
      <point x="164" y="500"/>
      <point x="155" y="491"/>
      <point x="155" y="480" type="curve" smooth="yes"/>
      <point x="155" y="270" type="line"/>
      <point x="70" y="270" type="line" smooth="yes"/>
      <point x="59" y="270"/>
      <point x="50" y="261"/>
      <point x="50" y="250" type="curve" smooth="yes"/>
      <point x="50" y="239"/>
      <point x="59" y="230"/>
      <point x="70" y="230" type="curve" smooth="yes"/>
      <point x="155" y="230" type="line"/>
      <point x="155" y="20" type="line" smooth="yes"/>
      <point x="155" y="9"/>
      <point x="164" y="0"/>
    </contour>
  </outline>
</glyph>
<glyph name="comma" format="1">
  <advance width="349.923048454"/>
  <unicode hex="002C"/>
  <outline>
    <contour>
      <point x="182.961524227" y="268" type="curve" smooth="yes"/>
      <point x="172.961524227" y="273"/>
      <point x="160.961524227" y="268"/>
      <point x="156.961524227" y="258" type="curve" smooth="yes"/>
      <point x="51.9615242271" y="28" type="line" smooth="yes"/>
      <point x="46.9615242271" y="18"/>
      <point x="51.9615242271" y="6"/>
      <point x="61.9615242271" y="2" type="curve" smooth="yes"/>
      <point x="71.9615242271" y="-3"/>
      <point x="83.9615242271" y="2"/>
      <point x="87.9615242271" y="12" type="curve" smooth="yes"/>
      <point x="192.961524227" y="242" type="line" smooth="yes"/>
      <point x="197.961524227" y="252"/>
      <point x="192.961524227" y="264"/>
    </contour>
  </outline>
</glyph>
<glyph name="hyphen" format="1">
  <advance width="350"/>
  <unicode hex="002D"/>
  <outline>
    <contour>
      <point x="50" y="250" type="curve" smooth="yes"/>
      <point x="50" y="239"/>
      <point x="59" y="230"/>
      <point x="70" y="230" type="curve" smooth="yes"/>
      <point x="280" y="230" type="line" smooth="yes"/>
      <point x="291" y="230"/>
      <point x="300" y="239"/>
      <point x="300" y="250" type="curve" smooth="yes"/>
      <point x="300" y="261"/>
      <point x="291" y="270"/>
      <point x="280" y="270" type="curve" smooth="yes"/>
      <point x="70" y="270" type="line" smooth="yes"/>
      <point x="59" y="270"/>
      <point x="50" y="261"/>
    </contour>
  </outline>
</glyph>
<glyph name="period" format="1">
  <advance width="350"/>
  <unicode hex="002E"/>
  <outline>
    <contour>
      <point x="50" y="20" type="curve" smooth="yes"/>
      <point x="50" y="9"/>
      <point x="59" y="0"/>
      <point x="70" y="0" type="curve" smooth="yes"/>
      <point x="175" y="0" type="line" smooth="yes"/>
      <point x="186" y="0"/>
      <point x="195" y="9"/>
      <point x="195" y="20" type="curve" smooth="yes"/>
      <point x="195" y="31"/>
      <point x="186" y="40"/>
      <point x="175" y="40" type="curve" smooth="yes"/>
      <point x="70" y="40" type="line" smooth="yes"/>
      <point x="59" y="40"/>
      <point x="50" y="31"/>
    </contour>
  </outline>
</glyph>
<glyph name="zero" format="1">
  <advance width="350"/>
  <unicode hex="0030"/>
  <outline>
    <contour>
      <point x="260" y="460" type="line"/>
      <point x="260" y="111" type="line"/>
      <point x="101" y="460" type="line"/>
    </contour>
    <contour>
      <point x="249" y="40" type="line"/>
      <point x="90" y="40" type="line"/>
      <point x="90" y="389" type="line"/>
    </contour>
    <contour>
      <point x="280" y="0" type="line" smooth="yes"/>
      <point x="282" y="0" type="line"/>
      <point x="286" y="1"/>
      <point x="285" y="1"/>
      <point x="283" y="0" type="curve"/>
      <point x="284" y="0"/>
      <point x="288" y="1"/>
      <point x="292" y="4" type="curve"/>
      <point x="289" y="3"/>
      <point x="291" y="3"/>
      <point x="292" y="4" type="curve"/>
      <point x="293" y="5"/>
      <point x="294" y="6"/>
      <point x="295" y="7" type="curve"/>
      <point x="295" y="7"/>
      <point x="296" y="8"/>
      <point x="296" y="8" type="curve"/>
      <point x="297" y="9"/>
      <point x="297" y="10"/>
      <point x="298" y="11" type="curve"/>
      <point x="298" y="11"/>
      <point x="298" y="12"/>
      <point x="299" y="13" type="curve"/>
      <point x="300" y="18"/>
      <point x="300" y="17"/>
      <point x="299" y="16" type="curve"/>
      <point x="300" y="16"/>
      <point x="300" y="17"/>
      <point x="300" y="18" type="curve"/>
      <point x="300" y="20" type="line" smooth="yes"/>
      <point x="300" y="480" type="line" smooth="yes"/>
      <point x="300" y="491"/>
      <point x="291" y="500"/>
      <point x="280" y="500" type="curve" smooth="yes"/>
      <point x="70" y="500" type="line" smooth="yes"/>
      <point x="68" y="500" type="line"/>
      <point x="64" y="499"/>
      <point x="65" y="499"/>
      <point x="67" y="500" type="curve"/>
      <point x="66" y="500"/>
      <point x="62" y="499"/>
      <point x="58" y="496" type="curve"/>
      <point x="61" y="497"/>
      <point x="59" y="497"/>
      <point x="58" y="496" type="curve"/>
      <point x="57" y="495"/>
      <point x="56" y="494"/>
      <point x="55" y="493" type="curve"/>
      <point x="55" y="493"/>
      <point x="54" y="492"/>
      <point x="54" y="492" type="curve"/>
      <point x="53" y="491"/>
      <point x="53" y="490"/>
      <point x="52" y="489" type="curve"/>
      <point x="52" y="489"/>
      <point x="52" y="488"/>
      <point x="51" y="487" type="curve"/>
      <point x="50" y="482"/>
      <point x="50" y="483"/>
      <point x="51" y="484" type="curve"/>
      <point x="50" y="484"/>
      <point x="50" y="483"/>
      <point x="50" y="482" type="curve"/>
      <point x="50" y="480" type="line" smooth="yes"/>
      <point x="50" y="20" type="line" smooth="yes"/>
      <point x="50" y="9"/>
      <point x="59" y="0"/>
      <point x="70" y="0" type="curve" smooth="yes"/>
    </contour>
  </outline>
</glyph>
<glyph name="1" format="1">
  <advance width="250"/>
  <unicode hex="31"/>
  <outline>
    <contour><point x="125" y="480" type="move"/><point x="125" y="20" type="line"/></contour>
  </outline>
</glyph>
<glyph name="two" format="1">
  <advance width="350"/>
  <unicode hex="0032"/>
  <outline>
    <contour>
      <point x="280" y="0" type="line" smooth="yes"/>
      <point x="291" y="0"/>
      <point x="300" y="9"/>
      <point x="300" y="20" type="curve" smooth="yes"/>
      <point x="300" y="31"/>
      <point x="291" y="40"/>
      <point x="280" y="40" type="curve" smooth="yes"/>
      <point x="90" y="40" type="line"/>
      <point x="90" y="230" type="line"/>
      <point x="280" y="230" type="line" smooth="yes"/>
      <point x="291" y="230"/>
      <point x="300" y="239"/>
      <point x="300" y="250" type="curve" smooth="yes"/>
      <point x="300" y="480" type="line" smooth="yes"/>
      <point x="300" y="491"/>
      <point x="291" y="500"/>
      <point x="280" y="500" type="curve" smooth="yes"/>
      <point x="70" y="500" type="line" smooth="yes"/>
      <point x="59" y="500"/>
      <point x="50" y="491"/>
      <point x="50" y="480" type="curve" smooth="yes"/>
      <point x="50" y="469"/>
      <point x="59" y="460"/>
      <point x="70" y="460" type="curve" smooth="yes"/>
      <point x="260" y="460" type="line"/>
      <point x="260" y="270" type="line"/>
      <point x="70" y="270" type="line" smooth="yes"/>
      <point x="59" y="270"/>
      <point x="50" y="261"/>
      <point x="50" y="250" type="curve" smooth="yes"/>
      <point x="50" y="20" type="line" smooth="yes"/>
      <point x="50" y="9"/>
      <point x="59" y="0"/>
      <point x="70" y="0" type="curve" smooth="yes"/>
    </contour>
  </outline>
</glyph>
<glyph name="nine" format="1">
  <advance width="350"/>
  <unicode hex="0039"/>
  <outline>
    <contour>
      <point x="260" y="460" type="line"/>
      <point x="260" y="270" type="line"/>
      <point x="90" y="270" type="line"/>
      <point x="90" y="460" type="line"/>
    </contour>
    <contour>
      <point x="280" y="0" type="line" smooth="yes"/>
      <point x="291" y="0"/>
      <point x="300" y="9"/>
      <point x="300" y="20" type="curve" smooth="yes"/>
      <point x="300" y="480" type="line" smooth="yes"/>
      <point x="300" y="491"/>
      <point x="291" y="500"/>
      <point x="280" y="500" type="curve" smooth="yes"/>
      <point x="70" y="500" type="line" smooth="yes"/>
      <point x="59" y="500"/>
      <point x="50" y="491"/>
      <point x="50" y="480" type="curve" smooth="yes"/>
      <point x="50" y="250" type="line" smooth="yes"/>
      <point x="50" y="239"/>
      <point x="59" y="230"/>
      <point x="70" y="230" type="curve" smooth="yes"/>
      <point x="260" y="230" type="line"/>
      <point x="260" y="40" type="line"/>
      <point x="70" y="40" type="line" smooth="yes"/>
      <point x="59" y="40"/>
      <point x="50" y="31"/>
      <point x="50" y="20" type="curve" smooth="yes"/>
      <point x="50" y="9"/>
      <point x="59" y="0"/>
      <point x="70" y="0" type="curve" smooth="yes"/>
    </contour>
  </outline>
</glyph>
<glyph name="less" format="1">
  <advance width="349.681125621"/>
  <unicode hex="003C"/>
  <outline>
    <contour>
      <point x="293" y="5" type="curve" smooth="yes"/>
      <point x="301" y="13"/>
      <point x="302" y="26"/>
      <point x="295" y="33" type="curve" smooth="yes"/>
      <point x="97" y="250" type="line"/>
      <point x="295" y="467" type="line" smooth="yes"/>
      <point x="302" y="474"/>
      <point x="301" y="487"/>
      <point x="293" y="495" type="curve" smooth="yes"/>
      <point x="286" y="502"/>
      <point x="273" y="501"/>
      <point x="265" y="493" type="curve" smooth="yes"/>
      <point x="55" y="263" type="line" smooth="yes"/>
      <point x="52" y="260"/>
      <point x="51" y="257"/>
      <point x="50" y="251" type="curve"/>
      <point x="50" y="251"/>
      <point x="50" y="251"/>
      <point x="50" y="251" type="curve"/>
      <point x="50" y="252"/>
      <point x="50" y="250"/>
      <point x="50" y="249" type="curve"/>
      <point x="50" y="246"/>
      <point x="51" y="241"/>
      <point x="55" y="237" type="curve" smooth="yes"/>
      <point x="265" y="7" type="line" smooth="yes"/>
      <point x="273" y="-1"/>
      <point x="286" y="-2"/>
    </contour>
  </outline>
</glyph>
<glyph name="equal" format="1">
  <advance width="350"/>
  <unicode hex="003D"/>
  <outline>
    <contour>
      <point x="70" y="0" type="curve" smooth="yes"/>
      <point x="280" y="0" type="line" smooth="yes"/>
      <point x="283" y="0"/>
      <point x="285" y="1"/>
      <point x="287" y="2" type="curve"/>
      <point x="292" y="4"/>
      <point x="291" y="3"/>
      <point x="289" y="2" type="curve"/>
      <point x="296" y="6"/>
      <point x="300" y="12"/>
      <point x="300" y="20" type="curve" smooth="yes"/>
      <point x="300" y="23"/>
      <point x="299" y="25"/>
      <point x="298" y="27" type="curve"/>
      <point x="296" y="32"/>
      <point x="297" y="31"/>
      <point x="298" y="29" type="curve"/>
      <point x="297" y="31"/>
      <point x="295" y="33"/>
      <point x="294" y="34" type="curve"/>
      <point x="115" y="230" type="line"/>
      <point x="280" y="230" type="line" smooth="yes"/>
      <point x="291" y="230"/>
      <point x="300" y="239"/>
      <point x="300" y="250" type="curve" smooth="yes"/>
      <point x="300" y="261"/>
      <point x="291" y="270"/>
      <point x="280" y="270" type="curve" smooth="yes"/>
      <point x="70" y="270" type="line" smooth="yes"/>
      <point x="67" y="270"/>
      <point x="65" y="269"/>
      <point x="63" y="268" type="curve"/>
      <point x="58" y="266"/>
      <point x="59" y="267"/>
      <point x="61" y="268" type="curve"/>
      <point x="54" y="264"/>
      <point x="50" y="258"/>
      <point x="50" y="250" type="curve" smooth="yes"/>
      <point x="50" y="247"/>
      <point x="51" y="245"/>
      <point x="52" y="243" type="curve"/>
      <point x="54" y="238"/>
      <point x="53" y="239"/>
      <point x="52" y="241" type="curve"/>
      <point x="53" y="239"/>
      <point x="55" y="237"/>
      <point x="56" y="236" type="curve"/>
      <point x="235" y="40" type="line"/>
      <point x="70" y="40" type="line" smooth="yes"/>
      <point x="59" y="40"/>
      <point x="50" y="31"/>
      <point x="50" y="20" type="curve" smooth="yes"/>
      <point x="50" y="9"/>
      <point x="59" y="0"/>
    </contour>
  </outline>
</glyph>
<glyph name="greater" format="1">
  <advance width="349.681125621"/>
  <unicode hex="003E"/>
  <outline>
    <contour>
      <point x="84.6811256209" y="7" type="curve" smooth="yes"/>
      <point x="294.681125621" y="237" type="line" smooth="yes"/>
      <point x="297.681125621" y="240"/>
      <point x="298.681125621" y="243"/>
      <point x="299.681125621" y="249" type="curve"/>
      <point x="299.681125621" y="249"/>
      <point x="299.681125621" y="249"/>
      <point x="299.681125621" y="249" type="curve"/>
      <point x="299.681125621" y="248"/>
      <point x="299.681125621" y="250"/>
      <point x="299.681125621" y="251" type="curve"/>
      <point x="299.681125621" y="254"/>
      <point x="298.681125621" y="259"/>
      <point x="294.681125621" y="263" type="curve" smooth="yes"/>
      <point x="84.6811256209" y="493" type="line" smooth="yes"/>
      <point x="76.6811256209" y="501"/>
      <point x="63.6811256209" y="502"/>
      <point x="56.6811256209" y="495" type="curve" smooth="yes"/>
      <point x="48.6811256209" y="487"/>
      <point x="47.6811256209" y="474"/>
      <point x="54.6811256209" y="467" type="curve" smooth="yes"/>
      <point x="252.681125621" y="250" type="line"/>
      <point x="54.6811256209" y="33" type="line" smooth="yes"/>
      <point x="47.6811256209" y="26"/>
      <point x="48.6811256209" y="13"/>
      <point x="56.6811256209" y="5" type="curve" smooth="yes"/>
      <point x="63.6811256209" y="-2"/>
      <point x="76.6811256209" y="-1"/>
    </contour>
  </outline>
</glyph>
<glyph name="B" format="1">
  <advance width="350"/>
  <unicode hex="0042"/>
  <outline>
    <contour>
      <point x="249" y="460" type="line"/>
      <point x="162" y="270" type="line"/>
      <point x="90" y="270" type="line"/>
      <point x="90" y="460" type="line"/>
    </contour>
    <contour>
      <point x="260" y="230" type="line"/>
      <point x="260" y="40" type="line"/>
      <point x="90" y="40" type="line"/>
      <point x="90" y="230" type="line"/>
    </contour>
    <contour>
      <point x="280" y="0" type="line" smooth="yes"/>
      <point x="291" y="0"/>
      <point x="300" y="9"/>
      <point x="300" y="20" type="curve" smooth="yes"/>
      <point x="300" y="250" type="line" smooth="yes"/>
      <point x="300" y="261"/>
      <point x="291" y="270"/>
      <point x="280" y="270" type="curve" smooth="yes"/>
      <point x="206" y="270" type="line"/>
      <point x="297" y="469" type="line"/>
      <point x="298" y="471"/>
      <point x="299" y="473"/>
      <point x="299" y="476" type="curve"/>
      <point x="299" y="473"/>
      <point x="299" y="475"/>
      <point x="300" y="477" type="curve"/>
      <point x="300" y="480" type="line" smooth="yes"/>
      <point x="300" y="481" type="line"/>
      <point x="300" y="482"/>
      <point x="300" y="483"/>
      <point x="300" y="482" type="curve"/>
      <point x="300" y="482"/>
      <point x="300" y="484"/>
      <point x="299" y="486" type="curve"/>
      <point x="299" y="487"/>
      <point x="299" y="488"/>
      <point x="298" y="488" type="curve"/>
      <point x="298" y="489"/>
      <point x="297" y="490"/>
      <point x="297" y="491" type="curve"/>
      <point x="296" y="491"/>
      <point x="296" y="492"/>
      <point x="296" y="492" type="curve"/>
      <point x="295" y="493"/>
      <point x="294" y="494"/>
      <point x="293" y="495" type="curve"/>
      <point x="290" y="497"/>
      <point x="291" y="497"/>
      <point x="292" y="495" type="curve"/>
      <point x="290" y="498"/>
      <point x="287" y="499"/>
      <point x="284" y="499" type="curve"/>
      <point x="286" y="499"/>
      <point x="285" y="499"/>
      <point x="283" y="500" type="curve"/>
      <point x="280" y="500" type="line" smooth="yes"/>
      <point x="70" y="500" type="line" smooth="yes"/>
      <point x="59" y="500"/>
      <point x="50" y="491"/>
      <point x="50" y="480" type="curve" smooth="yes"/>
      <point x="50" y="20" type="line" smooth="yes"/>
      <point x="50" y="9"/>
      <point x="59" y="0"/>
      <point x="70" y="0" type="curve" smooth="yes"/>
    </contour>
  </outline>
</glyph>
<glyph name="D" format="1">
  <advance width="350"/>
  <unicode hex="0044"/>
  <outline>
    <contour>
      <point x="258" y="250" type="line"/>
      <point x="162" y="40" type="line"/>
      <point x="90" y="40" type="line"/>
      <point x="90" y="460" type="line"/>
      <point x="162" y="460" type="line"/>
    </contour>
    <contour>
      <point x="175" y="0" type="line" smooth="yes"/>
      <point x="176" y="0" type="line"/>
      <point x="177" y="0"/>
      <point x="177" y="0"/>
      <point x="177" y="0" type="curve"/>
      <point x="177" y="0"/>
      <point x="179" y="0"/>
      <point x="181" y="1" type="curve"/>
      <point x="181" y="1"/>
      <point x="182" y="1"/>
      <point x="183" y="2" type="curve"/>
      <point x="184" y="2"/>
      <point x="185" y="3"/>
      <point x="186" y="3" type="curve"/>
      <point x="186" y="3"/>
      <point x="187" y="4"/>
      <point x="187" y="4" type="curve"/>
      <point x="188" y="5"/>
      <point x="189" y="6"/>
      <point x="190" y="7" type="curve"/>
      <point x="192" y="10"/>
      <point x="191" y="9"/>
      <point x="190" y="8" type="curve"/>
      <point x="192" y="9"/>
      <point x="194" y="12"/>
      <point x="194" y="15" type="curve"/>
      <point x="297" y="240" type="line"/>
      <point x="298" y="242"/>
      <point x="299" y="243"/>
      <point x="299" y="246" type="curve"/>
      <point x="299" y="243"/>
      <point x="299" y="245"/>
      <point x="299" y="246" type="curve"/>
      <point x="300" y="246"/>
      <point x="300" y="247"/>
      <point x="300" y="250" type="curve"/>
      <point x="300" y="250"/>
      <point x="300" y="251"/>
      <point x="300" y="252" type="curve"/>
      <point x="299" y="257"/>
      <point x="299" y="255"/>
      <point x="300" y="253" type="curve"/>
      <point x="299" y="256"/>
      <point x="298" y="259"/>
      <point x="297" y="260" type="curve"/>
      <point x="194" y="486" type="line"/>
      <point x="193" y="488"/>
      <point x="192" y="490"/>
      <point x="191" y="492" type="curve"/>
      <point x="192" y="489"/>
      <point x="192" y="491"/>
      <point x="191" y="492" type="curve"/>
      <point x="190" y="493"/>
      <point x="189" y="494"/>
      <point x="188" y="495" type="curve"/>
      <point x="187" y="496"/>
      <point x="187" y="496"/>
      <point x="187" y="496" type="curve"/>
      <point x="186" y="497"/>
      <point x="185" y="497"/>
      <point x="184" y="498" type="curve"/>
      <point x="183" y="498"/>
      <point x="182" y="499"/>
      <point x="182" y="499" type="curve"/>
      <point x="176" y="500"/>
      <point x="178" y="500"/>
      <point x="179" y="499" type="curve"/>
      <point x="178" y="500"/>
      <point x="177" y="500"/>
      <point x="177" y="500" type="curve"/>
      <point x="175" y="500" type="line" smooth="yes"/>
      <point x="70" y="500" type="line" smooth="yes"/>
      <point x="59" y="500"/>
      <point x="50" y="491"/>
      <point x="50" y="480" type="curve" smooth="yes"/>
      <point x="50" y="20" type="line" smooth="yes"/>
      <point x="50" y="9"/>
      <point x="59" y="0"/>
      <point x="70" y="0" type="curve" smooth="yes"/>
    </contour>
  </outline>
</glyph>
<glyph name="G" format="1">
  <advance width="350"/>
  <unicode hex="0047"/>
  <outline>
    <contour>
      <point x="280" y="0" type="line" smooth="yes"/>
      <point x="291" y="0"/>
      <point x="300" y="9"/>
      <point x="300" y="20" type="curve" smooth="yes"/>
      <point x="300" y="250" type="line" smooth="yes"/>
      <point x="300" y="261"/>
      <point x="291" y="270"/>
      <point x="280" y="270" type="curve" smooth="yes"/>
      <point x="175" y="270" type="line" smooth="yes"/>
      <point x="164" y="270"/>
      <point x="155" y="261"/>
      <point x="155" y="250" type="curve" smooth="yes"/>
      <point x="155" y="239"/>
      <point x="164" y="230"/>
      <point x="175" y="230" type="curve" smooth="yes"/>
      <point x="260" y="230" type="line"/>
      <point x="260" y="40" type="line"/>
      <point x="90" y="40" type="line"/>
      <point x="90" y="460" type="line"/>
      <point x="280" y="460" type="line" smooth="yes"/>
      <point x="291" y="460"/>
      <point x="300" y="469"/>
      <point x="300" y="480" type="curve" smooth="yes"/>
      <point x="300" y="491"/>
      <point x="291" y="500"/>
      <point x="280" y="500" type="curve" smooth="yes"/>
      <point x="70" y="500" type="line" smooth="yes"/>
      <point x="59" y="500"/>
      <point x="50" y="491"/>
      <point x="50" y="480" type="curve" smooth="yes"/>
      <point x="50" y="20" type="line" smooth="yes"/>
      <point x="50" y="9"/>
      <point x="59" y="0"/>
      <point x="70" y="0" type="curve" smooth="yes"/>
    </contour>
  </outline>
</glyph>
<glyph name="K" format="1">
  <advance width="349.681125621"/>
  <unicode hex="004B"/>
  <outline>
    <contour>
      <point x="70" y="0" type="curve" smooth="yes"/>
      <point x="81" y="0"/>
      <point x="90" y="9"/>
      <point x="90" y="20" type="curve" smooth="yes"/>
      <point x="90" y="199" type="line"/>
      <point x="265" y="7" type="line" smooth="yes"/>
      <point x="273" y="-1"/>
      <point x="286" y="-2"/>
      <point x="293" y="5" type="curve" smooth="yes"/>
      <point x="301" y="13"/>
      <point x="302" y="26"/>
      <point x="295" y="33" type="curve" smooth="yes"/>
      <point x="97" y="250" type="line"/>
      <point x="295" y="467" type="line" smooth="yes"/>
      <point x="302" y="474"/>
      <point x="301" y="487"/>
      <point x="293" y="495" type="curve" smooth="yes"/>
      <point x="286" y="502"/>
      <point x="273" y="501"/>
      <point x="265" y="493" type="curve" smooth="yes"/>
      <point x="90" y="301" type="line"/>
      <point x="90" y="480" type="line" smooth="yes"/>
      <point x="90" y="491"/>
      <point x="81" y="500"/>
      <point x="70" y="500" type="curve" smooth="yes"/>
      <point x="59" y="500"/>
      <point x="50" y="491"/>
      <point x="50" y="480" type="curve" smooth="yes"/>
      <point x="50" y="20" type="line" smooth="yes"/>
      <point x="50" y="9"/>
      <point x="59" y="0"/>
    </contour>
  </outline>
</glyph>
<glyph name="M" format="1">
  <advance width="350"/>
  <unicode hex="004D"/>
  <outline>
    <contour>
      <point x="280" y="0" type="curve" smooth="yes"/>
      <point x="291" y="0"/>
      <point x="300" y="9"/>
      <point x="300" y="20" type="curve" smooth="yes"/>
      <point x="300" y="480" type="line" smooth="yes"/>
      <point x="300" y="481" type="line"/>
      <point x="300" y="482"/>
      <point x="300" y="483"/>
      <point x="300" y="482" type="curve"/>
      <point x="300" y="482"/>
      <point x="300" y="484"/>
      <point x="299" y="486" type="curve"/>
      <point x="299" y="487"/>
      <point x="299" y="488"/>
      <point x="298" y="488" type="curve"/>
      <point x="298" y="489"/>
      <point x="297" y="490"/>
      <point x="297" y="491" type="curve"/>
      <point x="296" y="491"/>
      <point x="296" y="492"/>
      <point x="296" y="492" type="curve"/>
      <point x="295" y="493"/>
      <point x="294" y="494"/>
      <point x="293" y="495" type="curve"/>
      <point x="290" y="497"/>
      <point x="291" y="497"/>
      <point x="292" y="495" type="curve"/>
      <point x="290" y="498"/>
      <point x="287" y="499"/>
      <point x="284" y="499" type="curve"/>
      <point x="286" y="499"/>
      <point x="285" y="499"/>
      <point x="283" y="500" type="curve"/>
      <point x="280" y="500" type="line" smooth="yes"/>
      <point x="279" y="500" type="line"/>
      <point x="278" y="500"/>
      <point x="278" y="500"/>
      <point x="278" y="500" type="curve"/>
      <point x="278" y="500"/>
      <point x="276" y="500"/>
      <point x="274" y="499" type="curve"/>
      <point x="274" y="499"/>
      <point x="273" y="499"/>
      <point x="272" y="498" type="curve"/>
      <point x="271" y="498"/>
      <point x="270" y="497"/>
      <point x="269" y="497" type="curve"/>
      <point x="269" y="497"/>
      <point x="268" y="496"/>
      <point x="268" y="496" type="curve"/>
      <point x="267" y="495"/>
      <point x="266" y="494"/>
      <point x="265" y="493" type="curve"/>
      <point x="263" y="490"/>
      <point x="264" y="491"/>
      <point x="265" y="492" type="curve"/>
      <point x="263" y="491"/>
      <point x="261" y="488"/>
      <point x="261" y="485" type="curve"/>
      <point x="175" y="297" type="line"/>
      <point x="89" y="486" type="line"/>
      <point x="88" y="488"/>
      <point x="87" y="490"/>
      <point x="86" y="492" type="curve"/>
      <point x="87" y="489"/>
      <point x="87" y="491"/>
      <point x="86" y="492" type="curve"/>
      <point x="85" y="493"/>
      <point x="84" y="494"/>
      <point x="83" y="495" type="curve"/>
      <point x="82" y="496"/>
      <point x="82" y="496"/>
      <point x="82" y="496" type="curve"/>
      <point x="81" y="497"/>
      <point x="80" y="497"/>
      <point x="79" y="498" type="curve"/>
      <point x="78" y="498"/>
      <point x="77" y="499"/>
      <point x="77" y="499" type="curve"/>
      <point x="71" y="500"/>
      <point x="73" y="500"/>
      <point x="74" y="499" type="curve"/>
      <point x="73" y="500"/>
      <point x="72" y="500"/>
      <point x="72" y="500" type="curve"/>
      <point x="70" y="500" type="line" smooth="yes"/>
      <point x="68" y="500" type="line"/>
      <point x="64" y="499"/>
      <point x="65" y="499"/>
      <point x="67" y="500" type="curve"/>
      <point x="66" y="500"/>
      <point x="62" y="499"/>
      <point x="58" y="496" type="curve"/>
      <point x="61" y="497"/>
      <point x="59" y="497"/>
      <point x="58" y="496" type="curve"/>
      <point x="57" y="495"/>
      <point x="56" y="494"/>
      <point x="55" y="493" type="curve"/>
      <point x="55" y="493"/>
      <point x="54" y="492"/>
      <point x="54" y="492" type="curve"/>
      <point x="53" y="491"/>
      <point x="53" y="490"/>
      <point x="52" y="489" type="curve"/>
      <point x="52" y="489"/>
      <point x="52" y="488"/>
      <point x="51" y="487" type="curve"/>
      <point x="50" y="482"/>
      <point x="50" y="483"/>
      <point x="51" y="484" type="curve"/>
      <point x="50" y="484"/>
      <point x="50" y="483"/>
      <point x="50" y="482" type="curve"/>
      <point x="50" y="480" type="line" smooth="yes"/>
      <point x="50" y="20" type="line" smooth="yes"/>
      <point x="50" y="9"/>
      <point x="59" y="0"/>
      <point x="70" y="0" type="curve" smooth="yes"/>
      <point x="81" y="0"/>
      <point x="90" y="9"/>
      <point x="90" y="20" type="curve" smooth="yes"/>
      <point x="90" y="389" type="line"/>
      <point x="156" y="244" type="line"/>
      <point x="157" y="240"/>
      <point x="159" y="237"/>
      <point x="162" y="235" type="curve"/>
      <point x="165" y="233"/>
      <point x="168" y="231"/>
      <point x="171" y="231" type="curve"/>
      <point x="168" y="231"/>
      <point x="170" y="231"/>
      <point x="171" y="231" type="curve"/>
      <point x="172" y="230"/>
      <point x="173" y="230"/>
      <point x="175" y="230" type="curve"/>
      <point x="176" y="230"/>
      <point x="177" y="230"/>
      <point x="177" y="230" type="curve"/>
      <point x="181" y="231"/>
      <point x="180" y="231"/>
      <point x="178" y="230" type="curve"/>
      <point x="183" y="231"/>
      <point x="187" y="233"/>
      <point x="190" y="237" type="curve"/>
      <point x="192" y="239"/>
      <point x="193" y="241"/>
      <point x="194" y="244" type="curve"/>
      <point x="260" y="389" type="line"/>
      <point x="260" y="20" type="line" smooth="yes"/>
      <point x="260" y="9"/>
      <point x="269" y="0"/>
    </contour>
  </outline>
</glyph>
<glyph name="N" format="1">
  <advance width="350"/>
  <unicode hex="004E"/>
  <outline>
    <contour>
      <point x="280" y="0" type="line" smooth="yes"/>
      <point x="282" y="0" type="line"/>
      <point x="286" y="1"/>
      <point x="285" y="1"/>
      <point x="283" y="0" type="curve"/>
      <point x="284" y="0"/>
      <point x="288" y="1"/>
      <point x="292" y="4" type="curve"/>
      <point x="289" y="3"/>
      <point x="291" y="3"/>
      <point x="292" y="4" type="curve"/>
      <point x="293" y="5"/>
      <point x="294" y="6"/>
      <point x="295" y="7" type="curve"/>
      <point x="295" y="7"/>
      <point x="296" y="8"/>
      <point x="296" y="8" type="curve"/>
      <point x="297" y="9"/>
      <point x="297" y="10"/>
      <point x="298" y="11" type="curve"/>
      <point x="298" y="11"/>
      <point x="298" y="12"/>
      <point x="299" y="13" type="curve"/>
      <point x="300" y="18"/>
      <point x="300" y="17"/>
      <point x="299" y="16" type="curve"/>
      <point x="300" y="16"/>
      <point x="300" y="17"/>
      <point x="300" y="18" type="curve"/>
      <point x="300" y="20" type="line" smooth="yes"/>
      <point x="300" y="480" type="line" smooth="yes"/>
      <point x="300" y="491"/>
      <point x="291" y="500"/>
      <point x="280" y="500" type="curve" smooth="yes"/>
      <point x="269" y="500"/>
      <point x="260" y="491"/>
      <point x="260" y="480" type="curve" smooth="yes"/>
      <point x="260" y="111" type="line"/>
      <point x="89" y="486" type="line"/>
      <point x="88" y="488"/>
      <point x="87" y="490"/>
      <point x="86" y="492" type="curve"/>
      <point x="87" y="489"/>
      <point x="87" y="491"/>
      <point x="86" y="492" type="curve"/>
      <point x="85" y="493"/>
      <point x="84" y="494"/>
      <point x="83" y="495" type="curve"/>
      <point x="82" y="496"/>
      <point x="82" y="496"/>
      <point x="82" y="496" type="curve"/>
      <point x="81" y="497"/>
      <point x="80" y="497"/>
      <point x="79" y="498" type="curve"/>
      <point x="78" y="498"/>
      <point x="77" y="499"/>
      <point x="77" y="499" type="curve"/>
      <point x="71" y="500"/>
      <point x="73" y="500"/>
      <point x="74" y="499" type="curve"/>
      <point x="73" y="500"/>
      <point x="72" y="500"/>
      <point x="72" y="500" type="curve"/>
      <point x="70" y="500" type="line" smooth="yes"/>
      <point x="68" y="500" type="line"/>
      <point x="64" y="499"/>
      <point x="65" y="499"/>
      <point x="67" y="500" type="curve"/>
      <point x="66" y="500"/>
      <point x="62" y="499"/>
      <point x="58" y="496" type="curve"/>
      <point x="61" y="497"/>
      <point x="59" y="497"/>
      <point x="58" y="496" type="curve"/>
      <point x="57" y="495"/>
      <point x="56" y="494"/>
      <point x="55" y="493" type="curve"/>
      <point x="55" y="493"/>
      <point x="54" y="492"/>
      <point x="54" y="492" type="curve"/>
      <point x="53" y="491"/>
      <point x="53" y="490"/>
      <point x="52" y="489" type="curve"/>
      <point x="52" y="489"/>
      <point x="52" y="488"/>
      <point x="51" y="487" type="curve"/>
      <point x="50" y="482"/>
      <point x="50" y="483"/>
      <point x="51" y="484" type="curve"/>
      <point x="50" y="484"/>
      <point x="50" y="483"/>
      <point x="50" y="482" type="curve"/>
      <point x="50" y="480" type="line" smooth="yes"/>
      <point x="50" y="20" type="line" smooth="yes"/>
      <point x="50" y="9"/>
      <point x="59" y="0"/>
      <point x="70" y="0" type="curve" smooth="yes"/>
      <point x="81" y="0"/>
      <point x="90" y="9"/>
      <point x="90" y="20" type="curve" smooth="yes"/>
      <point x="90" y="389" type="line"/>
      <point x="261" y="14" type="line"/>
      <point x="262" y="12"/>
      <point x="263" y="10"/>
      <point x="264" y="8" type="curve"/>
      <point x="263" y="11"/>
      <point x="263" y="9"/>
      <point x="264" y="8" type="curve"/>
      <point x="265" y="7"/>
      <point x="266" y="6"/>
      <point x="267" y="5" type="curve"/>
      <point x="268" y="4"/>
      <point x="268" y="4"/>
      <point x="268" y="4" type="curve"/>
      <point x="269" y="3"/>
      <point x="270" y="3"/>
      <point x="271" y="2" type="curve"/>
      <point x="272" y="2"/>
      <point x="273" y="1"/>
      <point x="273" y="1" type="curve"/>
      <point x="279" y="0"/>
      <point x="277" y="0"/>
      <point x="276" y="1" type="curve"/>
      <point x="277" y="0"/>
      <point x="278" y="0"/>
      <point x="278" y="0" type="curve"/>
    </contour>
  </outline>
</glyph>
<glyph name="Q" format="1">
  <advance width="350"/>
  <unicode hex="0051"/>
  <outline>
    <contour>
      <point x="157" y="242" type="curve" smooth="yes"/>
      <point x="249" y="40" type="line"/>
      <point x="90" y="40" type="line"/>
      <point x="90" y="460" type="line"/>
      <point x="260" y="460" type="line"/>
      <point x="260" y="111" type="line"/>
      <point x="193" y="258" type="line" smooth="yes"/>
      <point x="189" y="268"/>
      <point x="177" y="273"/>
      <point x="167" y="268" type="curve" smooth="yes"/>
      <point x="157" y="264"/>
      <point x="152" y="252"/>
    </contour>
    <contour>
      <point x="280" y="0" type="line" smooth="yes"/>
      <point x="282" y="0" type="line"/>
      <point x="286" y="1"/>
      <point x="285" y="1"/>
      <point x="283" y="0" type="curve"/>
      <point x="284" y="0"/>
      <point x="288" y="1"/>
      <point x="292" y="4" type="curve"/>
      <point x="289" y="3"/>
      <point x="291" y="3"/>
      <point x="292" y="4" type="curve"/>
      <point x="293" y="5"/>
      <point x="294" y="6"/>
      <point x="295" y="7" type="curve"/>
      <point x="295" y="7"/>
      <point x="296" y="8"/>
      <point x="296" y="8" type="curve"/>
      <point x="297" y="9"/>
      <point x="297" y="10"/>
      <point x="298" y="11" type="curve"/>
      <point x="298" y="11"/>
      <point x="298" y="12"/>
      <point x="299" y="13" type="curve"/>
      <point x="300" y="18"/>
      <point x="300" y="17"/>
      <point x="299" y="16" type="curve"/>
      <point x="300" y="16"/>
      <point x="300" y="17"/>
      <point x="300" y="18" type="curve"/>
      <point x="300" y="20" type="line" smooth="yes"/>
      <point x="300" y="480" type="line" smooth="yes"/>
      <point x="300" y="491"/>
      <point x="291" y="500"/>
      <point x="280" y="500" type="curve" smooth="yes"/>
      <point x="70" y="500" type="line" smooth="yes"/>
      <point x="59" y="500"/>
      <point x="50" y="491"/>
      <point x="50" y="480" type="curve" smooth="yes"/>
      <point x="50" y="20" type="line" smooth="yes"/>
      <point x="50" y="9"/>
      <point x="59" y="0"/>
      <point x="70" y="0" type="curve" smooth="yes"/>
    </contour>
  </outline>
</glyph>
<glyph name="U" format="1">
  <advance width="350"/>
  <unicode hex="0055"/>
  <outline>
    <contour>
      <point x="280" y="0" type="line" smooth="yes"/>
      <point x="291" y="0"/>
      <point x="300" y="9"/>
      <point x="300" y="20" type="curve" smooth="yes"/>
      <point x="300" y="480" type="line" smooth="yes"/>
      <point x="300" y="491"/>
      <point x="291" y="500"/>
      <point x="280" y="500" type="curve" smooth="yes"/>
      <point x="269" y="500"/>
      <point x="260" y="491"/>
      <point x="260" y="480" type="curve" smooth="yes"/>
      <point x="260" y="40" type="line"/>
      <point x="90" y="40" type="line"/>
      <point x="90" y="480" type="line" smooth="yes"/>
      <point x="90" y="491"/>
      <point x="81" y="500"/>
      <point x="70" y="500" type="curve" smooth="yes"/>
      <point x="59" y="500"/>
      <point x="50" y="491"/>
      <point x="50" y="480" type="curve" smooth="yes"/>
      <point x="50" y="20" type="line" smooth="yes"/>
      <point x="50" y="9"/>
      <point x="59" y="0"/>
      <point x="70" y="0" type="curve" smooth="yes"/>
    </contour>
  </outline>
</glyph>
<glyph name="V" format="1">
  <advance width="349.393509036"/>
  <unicode hex="0056"/>
  <outline>
    <contour>
      <point x="298.696754518" y="476" type="line" smooth="yes"/>
      <point x="301.696754518" y="486"/>
      <point x="294.696754518" y="497"/>
      <point x="283.696754518" y="499" type="curve" smooth="yes"/>
      <point x="273.696754518" y="502"/>
      <point x="262.696754518" y="495"/>
      <point x="260.696754518" y="484" type="curve" smooth="yes"/>
      <point x="174.696754518" y="107" type="line"/>
      <point x="88.6967545182" y="484" type="line" smooth="yes"/>
      <point x="86.6967545182" y="495"/>
      <point x="75.6967545182" y="502"/>
      <point x="65.6967545182" y="499" type="curve" smooth="yes"/>
      <point x="54.6967545182" y="497"/>
      <point x="47.6967545182" y="486"/>
      <point x="50.6967545182" y="476" type="curve" smooth="yes"/>
      <point x="155.696754518" y="18" type="line"/>
      <point x="155.696754518" y="13"/>
      <point x="157.696754518" y="10"/>
      <point x="159.696754518" y="8" type="curve"/>
      <point x="159.696754518" y="7"/>
      <point x="159.696754518" y="7"/>
      <point x="159.696754518" y="7" type="curve"/>
      <point x="160.696754518" y="6"/>
      <point x="161.696754518" y="6"/>
      <point x="161.696754518" y="5" type="curve"/>
      <point x="165.696754518" y="2"/>
      <point x="169.696754518" y="0"/>
      <point x="173.696754518" y="0" type="curve"/>
      <point x="176.696754518" y="-1"/>
      <point x="182.696754518" y="1"/>
      <point x="186.696754518" y="5" type="curve"/>
      <point x="186.696754518" y="5"/>
      <point x="187.696754518" y="5"/>
      <point x="187.696754518" y="5" type="curve"/>
      <point x="188.696754518" y="6"/>
      <point x="188.696754518" y="6"/>
      <point x="189.696754518" y="7" type="curve"/>
      <point x="192.696754518" y="10"/>
      <point x="193.696754518" y="14"/>
      <point x="194.696754518" y="19" type="curve"/>
    </contour>
  </outline>
</glyph>
<glyph name="W" format="1">
  <advance width="350"/>
  <unicode hex="0057"/>
  <outline>
    <contour>
      <point x="280" y="0" type="line" smooth="yes"/>
      <point x="282" y="0" type="line"/>
      <point x="286" y="1"/>
      <point x="285" y="1"/>
      <point x="283" y="0" type="curve"/>
      <point x="284" y="0"/>
      <point x="288" y="1"/>
      <point x="292" y="4" type="curve"/>
      <point x="289" y="3"/>
      <point x="291" y="3"/>
      <point x="292" y="4" type="curve"/>
      <point x="293" y="5"/>
      <point x="294" y="6"/>
      <point x="295" y="7" type="curve"/>
      <point x="295" y="7"/>
      <point x="296" y="8"/>
      <point x="296" y="8" type="curve"/>
      <point x="297" y="9"/>
      <point x="297" y="10"/>
      <point x="298" y="11" type="curve"/>
      <point x="298" y="11"/>
      <point x="298" y="12"/>
      <point x="299" y="13" type="curve"/>
      <point x="300" y="18"/>
      <point x="300" y="17"/>
      <point x="299" y="16" type="curve"/>
      <point x="300" y="16"/>
      <point x="300" y="17"/>
      <point x="300" y="18" type="curve"/>
      <point x="300" y="20" type="line" smooth="yes"/>
      <point x="300" y="480" type="line" smooth="yes"/>
      <point x="300" y="491"/>
      <point x="291" y="500"/>
      <point x="280" y="500" type="curve" smooth="yes"/>
      <point x="269" y="500"/>
      <point x="260" y="491"/>
      <point x="260" y="480" type="curve" smooth="yes"/>
      <point x="260" y="111" type="line"/>
      <point x="194" y="256" type="line"/>
      <point x="193" y="260"/>
      <point x="191" y="263"/>
      <point x="188" y="265" type="curve"/>
      <point x="185" y="267"/>
      <point x="182" y="269"/>
      <point x="179" y="269" type="curve"/>
      <point x="182" y="269"/>
      <point x="180" y="269"/>
      <point x="179" y="269" type="curve"/>
      <point x="178" y="270"/>
      <point x="177" y="270"/>
      <point x="175" y="270" type="curve"/>
      <point x="174" y="270"/>
      <point x="173" y="270"/>
      <point x="173" y="270" type="curve"/>
      <point x="169" y="269"/>
      <point x="170" y="269"/>
      <point x="172" y="270" type="curve"/>
      <point x="167" y="269"/>
      <point x="163" y="267"/>
      <point x="160" y="263" type="curve"/>
      <point x="158" y="261"/>
      <point x="157" y="259"/>
      <point x="156" y="256" type="curve"/>
      <point x="90" y="111" type="line"/>
      <point x="90" y="480" type="line" smooth="yes"/>
      <point x="90" y="491"/>
      <point x="81" y="500"/>
      <point x="70" y="500" type="curve" smooth="yes"/>
      <point x="59" y="500"/>
      <point x="50" y="491"/>
      <point x="50" y="480" type="curve" smooth="yes"/>
      <point x="50" y="20" type="line" smooth="yes"/>
      <point x="50" y="19" type="line"/>
      <point x="50" y="18"/>
      <point x="50" y="17"/>
      <point x="50" y="18" type="curve"/>
      <point x="50" y="18"/>
      <point x="50" y="16"/>
      <point x="51" y="14" type="curve"/>
      <point x="51" y="13"/>
      <point x="51" y="12"/>
      <point x="52" y="12" type="curve"/>
      <point x="52" y="11"/>
      <point x="53" y="10"/>
      <point x="53" y="9" type="curve"/>
      <point x="54" y="9"/>
      <point x="54" y="8"/>
      <point x="54" y="8" type="curve"/>
      <point x="55" y="7"/>
      <point x="56" y="6"/>
      <point x="57" y="5" type="curve"/>
      <point x="60" y="3"/>
      <point x="59" y="3"/>
      <point x="58" y="5" type="curve"/>
      <point x="60" y="2"/>
      <point x="63" y="1"/>
      <point x="66" y="1" type="curve"/>
      <point x="64" y="1"/>
      <point x="65" y="1"/>
      <point x="67" y="0" type="curve"/>
      <point x="70" y="0" type="line" smooth="yes"/>
      <point x="71" y="0" type="line"/>
      <point x="72" y="0"/>
      <point x="72" y="0"/>
      <point x="72" y="0" type="curve"/>
      <point x="72" y="0"/>
      <point x="74" y="0"/>
      <point x="76" y="1" type="curve"/>
      <point x="76" y="1"/>
      <point x="77" y="1"/>
      <point x="78" y="2" type="curve"/>
      <point x="79" y="2"/>
      <point x="80" y="3"/>
      <point x="81" y="3" type="curve"/>
      <point x="81" y="3"/>
      <point x="82" y="4"/>
      <point x="82" y="4" type="curve"/>
      <point x="83" y="5"/>
      <point x="84" y="6"/>
      <point x="85" y="7" type="curve"/>
      <point x="87" y="10"/>
      <point x="86" y="9"/>
      <point x="85" y="8" type="curve"/>
      <point x="87" y="9"/>
      <point x="89" y="12"/>
      <point x="89" y="15" type="curve"/>
      <point x="175" y="203" type="line"/>
      <point x="261" y="14" type="line"/>
      <point x="262" y="12"/>
      <point x="263" y="10"/>
      <point x="264" y="8" type="curve"/>
      <point x="263" y="11"/>
      <point x="263" y="9"/>
      <point x="264" y="8" type="curve"/>
      <point x="265" y="7"/>
      <point x="266" y="6"/>
      <point x="267" y="5" type="curve"/>
      <point x="268" y="4"/>
      <point x="268" y="4"/>
      <point x="268" y="4" type="curve"/>
      <point x="269" y="3"/>
      <point x="270" y="3"/>
      <point x="271" y="2" type="curve"/>
      <point x="272" y="2"/>
      <point x="273" y="1"/>
      <point x="273" y="1" type="curve"/>
      <point x="279" y="0"/>
      <point x="277" y="0"/>
      <point x="276" y="1" type="curve"/>
      <point x="277" y="0"/>
      <point x="278" y="0"/>
      <point x="278" y="0" type="curve"/>
    </contour>
  </outline>
</glyph>
<glyph name="X" format="1">
  <advance width="349.923048454"/>
  <unicode hex="0058"/>
  <outline>
    <contour>
      <point x="87.9615242271" y="12" type="curve" smooth="yes"/>
      <point x="174.961524227" y="203" type="line"/>
      <point x="261.961524227" y="12" type="line" smooth="yes"/>
      <point x="265.961524227" y="2"/>
      <point x="277.961524227" y="-3"/>
      <point x="287.961524227" y="2" type="curve" smooth="yes"/>
      <point x="297.961524227" y="6"/>
      <point x="302.961524227" y="18"/>
      <point x="297.961524227" y="28" type="curve" smooth="yes"/>
      <point x="196.961524227" y="250" type="line"/>
      <point x="297.961524227" y="472" type="line" smooth="yes"/>
      <point x="302.961524227" y="482"/>
      <point x="297.961524227" y="494"/>
      <point x="287.961524227" y="498" type="curve" smooth="yes"/>
      <point x="277.961524227" y="503"/>
      <point x="265.961524227" y="498"/>
      <point x="261.961524227" y="488" type="curve" smooth="yes"/>
      <point x="174.961524227" y="297" type="line"/>
      <point x="87.9615242271" y="488" type="line" smooth="yes"/>
      <point x="83.9615242271" y="498"/>
      <point x="71.9615242271" y="503"/>
      <point x="61.9615242271" y="498" type="curve" smooth="yes"/>
      <point x="51.9615242271" y="494"/>
      <point x="46.9615242271" y="482"/>
      <point x="51.9615242271" y="472" type="curve" smooth="yes"/>
      <point x="152.961524227" y="250" type="line"/>
      <point x="51.9615242271" y="28" type="line" smooth="yes"/>
      <point x="46.9615242271" y="18"/>
      <point x="51.9615242271" y="6"/>
      <point x="61.9615242271" y="2" type="curve" smooth="yes"/>
      <point x="71.9615242271" y="-3"/>
      <point x="83.9615242271" y="2"/>
    </contour>
  </outline>
</glyph>
<glyph name="Y" format="1">
  <advance width="349.923048454"/>
  <unicode hex="0059"/>
  <outline>
    <contour>
      <point x="174.961524227" y="0" type="curve" smooth="yes"/>
      <point x="185.961524227" y="0"/>
      <point x="194.961524227" y="9"/>
      <point x="194.961524227" y="20" type="curve" smooth="yes"/>
      <point x="194.961524227" y="246" type="line"/>
      <point x="297.961524227" y="472" type="line" smooth="yes"/>
      <point x="302.961524227" y="482"/>
      <point x="297.961524227" y="494"/>
      <point x="287.961524227" y="498" type="curve" smooth="yes"/>
      <point x="277.961524227" y="503"/>
      <point x="265.961524227" y="498"/>
      <point x="261.961524227" y="488" type="curve" smooth="yes"/>
      <point x="174.961524227" y="297" type="line"/>
      <point x="87.9615242271" y="488" type="line" smooth="yes"/>
      <point x="83.9615242271" y="498"/>
      <point x="71.9615242271" y="503"/>
      <point x="61.9615242271" y="498" type="curve" smooth="yes"/>
      <point x="51.9615242271" y="494"/>
      <point x="46.9615242271" y="482"/>
      <point x="51.9615242271" y="472" type="curve" smooth="yes"/>
      <point x="154.961524227" y="246" type="line"/>
      <point x="154.961524227" y="20" type="line" smooth="yes"/>
      <point x="154.961524227" y="9"/>
      <point x="163.961524227" y="0"/>
    </contour>
  </outline>
</glyph>
<glyph name="Z" format="1">
  <advance width="350"/>
  <unicode hex="005A"/>
  <outline>
    <contour>
      <point x="70" y="0" type="line" smooth="yes"/>
      <point x="280" y="0" type="line" smooth="yes"/>
      <point x="291" y="0"/>
      <point x="300" y="9"/>
      <point x="300" y="20" type="curve" smooth="yes"/>
      <point x="300" y="31"/>
      <point x="291" y="40"/>
      <point x="280" y="40" type="curve" smooth="yes"/>
      <point x="101" y="40" type="line"/>
      <point x="297" y="469" type="line"/>
      <point x="298" y="471"/>
      <point x="299" y="473"/>
      <point x="299" y="476" type="curve"/>
      <point x="299" y="473"/>
      <point x="299" y="475"/>
      <point x="300" y="477" type="curve"/>
      <point x="300" y="480" type="line" smooth="yes"/>
      <point x="300" y="481" type="line"/>
      <point x="300" y="482"/>
      <point x="300" y="483"/>
      <point x="300" y="482" type="curve"/>
      <point x="300" y="482"/>
      <point x="300" y="484"/>
      <point x="299" y="486" type="curve"/>
      <point x="299" y="487"/>
      <point x="299" y="488"/>
      <point x="298" y="488" type="curve"/>
      <point x="298" y="489"/>
      <point x="297" y="490"/>
      <point x="297" y="491" type="curve"/>
      <point x="296" y="491"/>
      <point x="296" y="492"/>
      <point x="296" y="492" type="curve"/>
      <point x="295" y="493"/>
      <point x="294" y="494"/>
      <point x="293" y="495" type="curve"/>
      <point x="290" y="497"/>
      <point x="291" y="497"/>
      <point x="292" y="495" type="curve"/>
      <point x="290" y="498"/>
      <point x="287" y="499"/>
      <point x="284" y="499" type="curve"/>
      <point x="286" y="499"/>
      <point x="285" y="499"/>
      <point x="283" y="500" type="curve"/>
      <point x="280" y="500" type="line" smooth="yes"/>
      <point x="70" y="500" type="line" smooth="yes"/>
      <point x="59" y="500"/>
      <point x="50" y="491"/>
      <point x="50" y="480" type="curve" smooth="yes"/>
      <point x="50" y="469"/>
      <point x="59" y="460"/>
      <point x="70" y="460" type="curve" smooth="yes"/>
      <point x="249" y="460" type="line"/>
      <point x="53" y="31" type="line"/>
      <point x="52" y="29"/>
      <point x="51" y="27"/>
      <point x="51" y="24" type="curve"/>
      <point x="51" y="27"/>
      <point x="51" y="25"/>
      <point x="50" y="23" type="curve"/>
      <point x="50" y="20" type="line" smooth="yes"/>
      <point x="50" y="19" type="line"/>
      <point x="50" y="18"/>
      <point x="50" y="17"/>
      <point x="50" y="18" type="curve"/>
      <point x="50" y="18"/>
      <point x="50" y="16"/>
      <point x="51" y="14" type="curve"/>
      <point x="51" y="13"/>
      <point x="51" y="12"/>
      <point x="52" y="12" type="curve"/>
      <point x="52" y="11"/>
      <point x="53" y="10"/>
      <point x="53" y="9" type="curve"/>
      <point x="54" y="9"/>
      <point x="54" y="8"/>
      <point x="54" y="8" type="curve"/>
      <point x="55" y="7"/>
      <point x="56" y="6"/>
      <point x="57" y="5" type="curve"/>
      <point x="60" y="3"/>
      <point x="59" y="3"/>
      <point x="58" y="5" type="curve"/>
      <point x="60" y="2"/>
      <point x="63" y="1"/>
      <point x="66" y="1" type="curve"/>
      <point x="64" y="1"/>
      <point x="65" y="1"/>
      <point x="67" y="0" type="curve"/>
    </contour>
  </outline>
</glyph>
<glyph name="backslash" format="1">
  <advance width="349.923048454"/>
  <unicode hex="005C"/>
  <outline>
    <contour>
      <point x="61.9615242271" y="498" type="curve" smooth="yes"/>
      <point x="51.9615242271" y="494"/>
      <point x="46.9615242271" y="482"/>
      <point x="51.9615242271" y="472" type="curve" smooth="yes"/>
      <point x="261.961524227" y="12" type="line" smooth="yes"/>
      <point x="265.961524227" y="2"/>
      <point x="277.961524227" y="-3"/>
      <point x="287.961524227" y="2" type="curve" smooth="yes"/>
      <point x="297.961524227" y="6"/>
      <point x="302.961524227" y="18"/>
      <point x="297.961524227" y="28" type="curve" smooth="yes"/>
      <point x="87.9615242271" y="488" type="line" smooth="yes"/>
      <point x="83.9615242271" y="498"/>
      <point x="71.9615242271" y="503"/>
    </contour>
  </outline>
</glyph>
<glyph name="bracketright" format="1">
  <advance width="350"/>
  <unicode hex="005D"/>
  <outline>
    <contour>
      <point x="280" y="0" type="line" smooth="yes"/>
      <point x="291" y="0"/>
      <point x="300" y="9"/>
      <point x="300" y="20" type="curve" smooth="yes"/>
      <point x="300" y="480" type="line" smooth="yes"/>
      <point x="300" y="491"/>
      <point x="291" y="500"/>
      <point x="280" y="500" type="curve" smooth="yes"/>
      <point x="175" y="500" type="line" smooth="yes"/>
      <point x="164" y="500"/>
      <point x="155" y="491"/>
      <point x="155" y="480" type="curve" smooth="yes"/>
      <point x="155" y="469"/>
      <point x="164" y="460"/>
      <point x="175" y="460" type="curve" smooth="yes"/>
      <point x="260" y="460" type="line"/>
      <point x="260" y="40" type="line"/>
      <point x="175" y="40" type="line" smooth="yes"/>
      <point x="164" y="40"/>
      <point x="155" y="31"/>
      <point x="155" y="20" type="curve" smooth="yes"/>
      <point x="155" y="9"/>
      <point x="164" y="0"/>
      <point x="175" y="0" type="curve" smooth="yes"/>
    </contour>
  </outline>
</glyph>
<glyph name="asciicircum" format="1">
  <advance width="349.923048454"/>
  <unicode hex="005E"/>
  <outline>
    <contour>
      <point x="87.9615242271" y="242" type="curve" smooth="yes"/>
      <point x="174.961524227" y="433" type="line"/>
      <point x="261.961524227" y="242" type="line" smooth="yes"/>
      <point x="265.961524227" y="232"/>
      <point x="277.961524227" y="227"/>
      <point x="287.961524227" y="232" type="curve" smooth="yes"/>
      <point x="297.961524227" y="236"/>
      <point x="302.961524227" y="248"/>
      <point x="297.961524227" y="258" type="curve" smooth="yes"/>
      <point x="193.961524227" y="486" type="line"/>
      <point x="192.961524227" y="490"/>
      <point x="190.961524227" y="493"/>
      <point x="187.961524227" y="495" type="curve"/>
      <point x="184.961524227" y="497"/>
      <point x="181.961524227" y="499"/>
      <point x="178.961524227" y="499" type="curve"/>
      <point x="181.961524227" y="499"/>
      <point x="179.961524227" y="499"/>
      <point x="178.961524227" y="499" type="curve"/>
      <point x="177.961524227" y="500"/>
      <point x="176.961524227" y="500"/>
      <point x="174.961524227" y="500" type="curve"/>
      <point x="173.961524227" y="500"/>
      <point x="172.961524227" y="500"/>
      <point x="172.961524227" y="500" type="curve"/>
      <point x="168.961524227" y="499"/>
      <point x="169.961524227" y="499"/>
      <point x="171.961524227" y="500" type="curve"/>
      <point x="166.961524227" y="499"/>
      <point x="162.961524227" y="497"/>
      <point x="159.961524227" y="493" type="curve"/>
      <point x="157.961524227" y="491"/>
      <point x="156.961524227" y="489"/>
      <point x="155.961524227" y="486" type="curve"/>
      <point x="51.9615242271" y="258" type="line" smooth="yes"/>
      <point x="46.9615242271" y="248"/>
      <point x="51.9615242271" y="236"/>
      <point x="61.9615242271" y="232" type="curve" smooth="yes"/>
      <point x="71.9615242271" y="227"/>
      <point x="83.9615242271" y="232"/>
    </contour>
  </outline>
</glyph>
<glyph name="underscore" format="1">
  <advance width="350"/>
  <unicode hex="005F"/>
  <outline>
    <contour>
      <point x="50" y="20" type="curve" smooth="yes"/>
      <point x="50" y="9"/>
      <point x="59" y="0"/>
      <point x="70" y="0" type="curve" smooth="yes"/>
      <point x="280" y="0" type="line" smooth="yes"/>
      <point x="291" y="0"/>
      <point x="300" y="9"/>
      <point x="300" y="20" type="curve" smooth="yes"/>
      <point x="300" y="31"/>
      <point x="291" y="40"/>
      <point x="280" y="40" type="curve" smooth="yes"/>
      <point x="70" y="40" type="line" smooth="yes"/>
      <point x="59" y="40"/>
      <point x="50" y="31"/>
    </contour>
  </outline>
</glyph>
<glyph name="grave" format="1">
  <advance width="349.923048454"/>
  <unicode hex="0060"/>
  <outline>
    <contour>
      <point x="61.9615242271" y="498" type="curve" smooth="yes"/>
      <point x="51.9615242271" y="494"/>
      <point x="46.9615242271" y="482"/>
      <point x="51.9615242271" y="472" type="curve" smooth="yes"/>
      <point x="156.961524227" y="242" type="line" smooth="yes"/>
      <point x="160.961524227" y="232"/>
      <point x="172.961524227" y="227"/>
      <point x="182.961524227" y="232" type="curve" smooth="yes"/>
      <point x="192.961524227" y="236"/>
      <point x="197.961524227" y="248"/>
      <point x="192.961524227" y="258" type="curve" smooth="yes"/>
      <point x="87.9615242271" y="488" type="line" smooth="yes"/>
      <point x="83.9615242271" y="498"/>
      <point x="71.9615242271" y="503"/>
    </contour>
  </outline>
</glyph>
<glyph name="a" format="1">
  <advance width="350"/>
  <unicode hex="0061"/>
  <outline>
    <contour>
      <point x="280.0" y="0.0" type="curve" smooth="yes"/>
      <point x="291.0" y="0.0"/>
      <point x="300.0" y="9.0"/>
      <point x="300.0" y="20.0" type="curve" smooth="yes"/>
      <point x="300.0" y="480.0" type="line" smooth="yes"/>
      <point x="300.0" y="491.0"/>
      <point x="291.0" y="500.0"/>
      <point x="280.0" y="500.0" type="curve" smooth="yes"/>
      <point x="70.0" y="500.0" type="line" smooth="yes"/>
      <point x="59.0" y="500.0"/>
      <point x="50.0" y="491.0"/>
      <point x="50.0" y="480.0" type="curve" smooth="yes"/>
      <point x="50.0" y="20.0" type="line" smooth="yes"/>
      <point x="50.0" y="9.0"/>
      <point x="59.0" y="0.0"/>
      <point x="70.0" y="0.0" type="curve" smooth="yes"/>
      <point x="81.0" y="0.0"/>
      <point x="90.0" y="9.0"/>
      <point x="90.0" y="20.0" type="curve" smooth="yes"/>
      <point x="90.0" y="230.0" type="line"/>
      <point x="260.0" y="230.0" type="line"/>
      <point x="260.0" y="20.0" type="line" smooth="yes"/>
      <point x="260.0" y="9.0"/>
      <point x="269.0" y="0.0"/>
    </contour>
    <contour>
      <point x="260.0" y="460.0" type="line"/>
      <point x="260.0" y="270.0" type="line"/>
      <point x="90.0" y="270.0" type="line"/>
      <point x="90.0" y="460.0" type="line"/>
    </contour>
  </outline>
</glyph>
<glyph name="b" format="1">
  <advance width="350"/>
  <unicode hex="0062"/>
  <outline>
    <contour>
      <point x="249.0" y="460.0" type="line"/>
      <point x="162.0" y="270.0" type="line"/>
      <point x="90.0" y="270.0" type="line"/>
      <point x="90.0" y="460.0" type="line"/>
    </contour>
    <contour>
      <point x="260.0" y="230.0" type="line"/>
      <point x="260.0" y="40.0" type="line"/>
      <point x="90.0" y="40.0" type="line"/>
      <point x="90.0" y="230.0" type="line"/>
    </contour>
    <contour>
      <point x="280.0" y="0.0" type="line" smooth="yes"/>
      <point x="291.0" y="0.0"/>
      <point x="300.0" y="9.0"/>
      <point x="300.0" y="20.0" type="curve" smooth="yes"/>
      <point x="300.0" y="250.0" type="line" smooth="yes"/>
      <point x="300.0" y="261.0"/>
      <point x="291.0" y="270.0"/>
      <point x="280.0" y="270.0" type="curve" smooth="yes"/>
      <point x="206.0" y="270.0" type="line"/>
      <point x="297.0" y="469.0" type="line"/>
      <point x="298.0" y="471.0"/>
      <point x="299.0" y="473.0"/>
      <point x="299.0" y="476.0" type="curve"/>
      <point x="299.0" y="473.0"/>
      <point x="299.0" y="475.0"/>
      <point x="300.0" y="477.0" type="curve"/>
      <point x="300.0" y="480.0" type="line" smooth="yes"/>
      <point x="300.0" y="481.0" type="line"/>
      <point x="300.0" y="482.0"/>
      <point x="300.0" y="483.0"/>
      <point x="300.0" y="482.0" type="curve"/>
      <point x="300.0" y="482.0"/>
      <point x="300.0" y="484.0"/>
      <point x="299.0" y="486.0" type="curve"/>
      <point x="299.0" y="487.0"/>
      <point x="299.0" y="488.0"/>
      <point x="298.0" y="488.0" type="curve"/>
      <point x="298.0" y="489.0"/>
      <point x="297.0" y="490.0"/>
      <point x="297.0" y="491.0" type="curve"/>
      <point x="296.0" y="491.0"/>
      <point x="296.0" y="492.0"/>
      <point x="296.0" y="492.0" type="curve"/>
      <point x="295.0" y="493.0"/>
      <point x="294.0" y="494.0"/>
      <point x="293.0" y="495.0" type="curve"/>
      <point x="290.0" y="497.0"/>
      <point x="291.0" y="497.0"/>
      <point x="292.0" y="495.0" type="curve"/>
      <point x="290.0" y="498.0"/>
      <point x="287.0" y="499.0"/>
      <point x="284.0" y="499.0" type="curve"/>
      <point x="286.0" y="499.0"/>
      <point x="285.0" y="499.0"/>
      <point x="283.0" y="500.0" type="curve"/>
      <point x="280.0" y="500.0" type="line" smooth="yes"/>
      <point x="70.0" y="500.0" type="line" smooth="yes"/>
      <point x="59.0" y="500.0"/>
      <point x="50.0" y="491.0"/>
      <point x="50.0" y="480.0" type="curve" smooth="yes"/>
      <point x="50.0" y="20.0" type="line" smooth="yes"/>
      <point x="50.0" y="9.0"/>
      <point x="59.0" y="0.0"/>
      <point x="70.0" y="0.0" type="curve" smooth="yes"/>
    </contour>
  </outline>
</glyph>
<glyph name="d" format="1">
  <advance width="350"/>
  <unicode hex="0064"/>
  <outline>
    <contour>
      <point x="258.0" y="250.0" type="line"/>
      <point x="162.0" y="40.0" type="line"/>
      <point x="90.0" y="40.0" type="line"/>
      <point x="90.0" y="460.0" type="line"/>
      <point x="162.0" y="460.0" type="line"/>
    </contour>
    <contour>
      <point x="175.0" y="0.0" type="line" smooth="yes"/>
      <point x="176.0" y="0.0" type="line"/>
      <point x="177.0" y="0.0"/>
      <point x="177.0" y="0.0"/>
      <point x="177.0" y="0.0" type="curve"/>
      <point x="177.0" y="0.0"/>
      <point x="179.0" y="0.0"/>
      <point x="181.0" y="1.0" type="curve"/>
      <point x="181.0" y="1.0"/>
      <point x="182.0" y="1.0"/>
      <point x="183.0" y="2.0" type="curve"/>
      <point x="184.0" y="2.0"/>
      <point x="185.0" y="3.0"/>
      <point x="186.0" y="3.0" type="curve"/>
      <point x="186.0" y="3.0"/>
      <point x="187.0" y="4.0"/>
      <point x="187.0" y="4.0" type="curve"/>
      <point x="188.0" y="5.0"/>
      <point x="189.0" y="6.0"/>
      <point x="190.0" y="7.0" type="curve"/>
      <point x="192.0" y="10.0"/>
      <point x="191.0" y="9.0"/>
      <point x="190.0" y="8.0" type="curve"/>
      <point x="192.0" y="9.0"/>
      <point x="194.0" y="12.0"/>
      <point x="194.0" y="15.0" type="curve"/>
      <point x="297.0" y="240.0" type="line"/>
      <point x="298.0" y="242.0"/>
      <point x="299.0" y="243.0"/>
      <point x="299.0" y="246.0" type="curve"/>
      <point x="299.0" y="243.0"/>
      <point x="299.0" y="245.0"/>
      <point x="299.0" y="246.0" type="curve"/>
      <point x="300.0" y="246.0"/>
      <point x="300.0" y="247.0"/>
      <point x="300.0" y="250.0" type="curve"/>
      <point x="300.0" y="250.0"/>
      <point x="300.0" y="251.0"/>
      <point x="300.0" y="252.0" type="curve"/>
      <point x="299.0" y="257.0"/>
      <point x="299.0" y="255.0"/>
      <point x="300.0" y="253.0" type="curve"/>
      <point x="299.0" y="256.0"/>
      <point x="298.0" y="259.0"/>
      <point x="297.0" y="260.0" type="curve"/>
      <point x="194.0" y="486.0" type="line"/>
      <point x="193.0" y="488.0"/>
      <point x="192.0" y="490.0"/>
      <point x="191.0" y="492.0" type="curve"/>
      <point x="192.0" y="489.0"/>
      <point x="192.0" y="491.0"/>
      <point x="191.0" y="492.0" type="curve"/>
      <point x="190.0" y="493.0"/>
      <point x="189.0" y="494.0"/>
      <point x="188.0" y="495.0" type="curve"/>
      <point x="187.0" y="496.0"/>
      <point x="187.0" y="496.0"/>
      <point x="187.0" y="496.0" type="curve"/>
      <point x="186.0" y="497.0"/>
      <point x="185.0" y="497.0"/>
      <point x="184.0" y="498.0" type="curve"/>
      <point x="183.0" y="498.0"/>
      <point x="182.0" y="499.0"/>
      <point x="182.0" y="499.0" type="curve"/>
      <point x="176.0" y="500.0"/>
      <point x="178.0" y="500.0"/>
      <point x="179.0" y="499.0" type="curve"/>
      <point x="178.0" y="500.0"/>
      <point x="177.0" y="500.0"/>
      <point x="177.0" y="500.0" type="curve"/>
      <point x="175.0" y="500.0" type="line" smooth="yes"/>
      <point x="70.0" y="500.0" type="line" smooth="yes"/>
      <point x="59.0" y="500.0"/>
      <point x="50.0" y="491.0"/>
      <point x="50.0" y="480.0" type="curve" smooth="yes"/>
      <point x="50.0" y="20.0" type="line" smooth="yes"/>
      <point x="50.0" y="9.0"/>
      <point x="59.0" y="0.0"/>
      <point x="70.0" y="0.0" type="curve" smooth="yes"/>
    </contour>
  </outline>
</glyph>
<glyph name="i" format="1">
  <advance width="350"/>
  <unicode hex="0069"/>
  <outline>
    <contour>
      <point x="70.0" y="0.0" type="curve" smooth="yes"/>
      <point x="280.0" y="0.0" type="line" smooth="yes"/>
      <point x="291.0" y="0.0"/>
      <point x="300.0" y="9.0"/>
      <point x="300.0" y="20.0" type="curve" smooth="yes"/>
      <point x="300.0" y="31.0"/>
      <point x="291.0" y="40.0"/>
      <point x="280.0" y="40.0" type="curve" smooth="yes"/>
      <point x="195.0" y="40.0" type="line"/>
      <point x="195.0" y="460.0" type="line"/>
      <point x="280.0" y="460.0" type="line" smooth="yes"/>
      <point x="291.0" y="460.0"/>
      <point x="300.0" y="469.0"/>
      <point x="300.0" y="480.0" type="curve" smooth="yes"/>
      <point x="300.0" y="491.0"/>
      <point x="291.0" y="500.0"/>
      <point x="280.0" y="500.0" type="curve" smooth="yes"/>
      <point x="70.0" y="500.0" type="line" smooth="yes"/>
      <point x="59.0" y="500.0"/>
      <point x="50.0" y="491.0"/>
      <point x="50.0" y="480.0" type="curve" smooth="yes"/>
      <point x="50.0" y="469.0"/>
      <point x="59.0" y="460.0"/>
      <point x="70.0" y="460.0" type="curve" smooth="yes"/>
      <point x="155.0" y="460.0" type="line"/>
      <point x="155.0" y="40.0" type="line"/>
      <point x="70.0" y="40.0" type="line" smooth="yes"/>
      <point x="59.0" y="40.0"/>
      <point x="50.0" y="31.0"/>
      <point x="50.0" y="20.0" type="curve" smooth="yes"/>
      <point x="50.0" y="9.0"/>
      <point x="59.0" y="0.0"/>
    </contour>
  </outline>
</glyph>
<glyph name="k" format="1">
  <advance width="349.681125621"/>
  <unicode hex="006B"/>
  <outline>
    <contour>
      <point x="70.0" y="0.0" type="curve" smooth="yes"/>
      <point x="81.0" y="0.0"/>
      <point x="90.0" y="9.0"/>
      <point x="90.0" y="20.0" type="curve" smooth="yes"/>
      <point x="90.0" y="199.0" type="line"/>
      <point x="265.0" y="7.0" type="line" smooth="yes"/>
      <point x="273.0" y="-1.0"/>
      <point x="286.0" y="-2.0"/>
      <point x="293.0" y="5.0" type="curve" smooth="yes"/>
      <point x="301.0" y="13.0"/>
      <point x="302.0" y="26.0"/>
      <point x="295.0" y="33.0" type="curve" smooth="yes"/>
      <point x="97.0" y="250.0" type="line"/>
      <point x="295.0" y="467.0" type="line" smooth="yes"/>
      <point x="302.0" y="474.0"/>
      <point x="301.0" y="487.0"/>
      <point x="293.0" y="495.0" type="curve" smooth="yes"/>
      <point x="286.0" y="502.0"/>
      <point x="273.0" y="501.0"/>
      <point x="265.0" y="493.0" type="curve" smooth="yes"/>
      <point x="90.0" y="301.0" type="line"/>
      <point x="90.0" y="480.0" type="line" smooth="yes"/>
      <point x="90.0" y="491.0"/>
      <point x="81.0" y="500.0"/>
      <point x="70.0" y="500.0" type="curve" smooth="yes"/>
      <point x="59.0" y="500.0"/>
      <point x="50.0" y="491.0"/>
      <point x="50.0" y="480.0" type="curve" smooth="yes"/>
      <point x="50.0" y="20.0" type="line" smooth="yes"/>
      <point x="50.0" y="9.0"/>
      <point x="59.0" y="0.0"/>
    </contour>
  </outline>
</glyph>
<glyph name="n" format="1">
  <advance width="350"/>
  <unicode hex="006E"/>
  <outline>
    <contour>
      <point x="280.0" y="0.0" type="line" smooth="yes"/>
      <point x="282.0" y="0.0" type="line"/>
      <point x="286.0" y="1.0"/>
      <point x="285.0" y="1.0"/>
      <point x="283.0" y="0.0" type="curve"/>
      <point x="284.0" y="0.0"/>
      <point x="288.0" y="1.0"/>
      <point x="292.0" y="4.0" type="curve"/>
      <point x="289.0" y="3.0"/>
      <point x="291.0" y="3.0"/>
      <point x="292.0" y="4.0" type="curve"/>
      <point x="293.0" y="5.0"/>
      <point x="294.0" y="6.0"/>
      <point x="295.0" y="7.0" type="curve"/>
      <point x="295.0" y="7.0"/>
      <point x="296.0" y="8.0"/>
      <point x="296.0" y="8.0" type="curve"/>
      <point x="297.0" y="9.0"/>
      <point x="297.0" y="10.0"/>
      <point x="298.0" y="11.0" type="curve"/>
      <point x="298.0" y="11.0"/>
      <point x="298.0" y="12.0"/>
      <point x="299.0" y="13.0" type="curve"/>
      <point x="300.0" y="18.0"/>
      <point x="300.0" y="17.0"/>
      <point x="299.0" y="16.0" type="curve"/>
      <point x="300.0" y="16.0"/>
      <point x="300.0" y="17.0"/>
      <point x="300.0" y="18.0" type="curve"/>
      <point x="300.0" y="20.0" type="line" smooth="yes"/>
      <point x="300.0" y="480.0" type="line" smooth="yes"/>
      <point x="300.0" y="491.0"/>
      <point x="291.0" y="500.0"/>
      <point x="280.0" y="500.0" type="curve" smooth="yes"/>
      <point x="269.0" y="500.0"/>
      <point x="260.0" y="491.0"/>
      <point x="260.0" y="480.0" type="curve" smooth="yes"/>
      <point x="260.0" y="111.0" type="line"/>
      <point x="89.0" y="486.0" type="line"/>
      <point x="88.0" y="488.0"/>
      <point x="87.0" y="490.0"/>
      <point x="86.0" y="492.0" type="curve"/>
      <point x="87.0" y="489.0"/>
      <point x="87.0" y="491.0"/>
      <point x="86.0" y="492.0" type="curve"/>
      <point x="85.0" y="493.0"/>
      <point x="84.0" y="494.0"/>
      <point x="83.0" y="495.0" type="curve"/>
      <point x="82.0" y="496.0"/>
      <point x="82.0" y="496.0"/>
      <point x="82.0" y="496.0" type="curve"/>
      <point x="81.0" y="497.0"/>
      <point x="80.0" y="497.0"/>
      <point x="79.0" y="498.0" type="curve"/>
      <point x="78.0" y="498.0"/>
      <point x="77.0" y="499.0"/>
      <point x="77.0" y="499.0" type="curve"/>
      <point x="71.0" y="500.0"/>
      <point x="73.0" y="500.0"/>
      <point x="74.0" y="499.0" type="curve"/>
      <point x="73.0" y="500.0"/>
      <point x="72.0" y="500.0"/>
      <point x="72.0" y="500.0" type="curve"/>
      <point x="70.0" y="500.0" type="line" smooth="yes"/>
      <point x="68.0" y="500.0" type="line"/>
      <point x="64.0" y="499.0"/>
      <point x="65.0" y="499.0"/>
      <point x="67.0" y="500.0" type="curve"/>
      <point x="66.0" y="500.0"/>
      <point x="62.0" y="499.0"/>
      <point x="58.0" y="496.0" type="curve"/>
      <point x="61.0" y="497.0"/>
      <point x="59.0" y="497.0"/>
      <point x="58.0" y="496.0" type="curve"/>
      <point x="57.0" y="495.0"/>
      <point x="56.0" y="494.0"/>
      <point x="55.0" y="493.0" type="curve"/>
      <point x="55.0" y="493.0"/>
      <point x="54.0" y="492.0"/>
      <point x="54.0" y="492.0" type="curve"/>
      <point x="53.0" y="491.0"/>
      <point x="53.0" y="490.0"/>
      <point x="52.0" y="489.0" type="curve"/>
      <point x="52.0" y="489.0"/>
      <point x="52.0" y="488.0"/>
      <point x="51.0" y="487.0" type="curve"/>
      <point x="50.0" y="482.0"/>
      <point x="50.0" y="483.0"/>
      <point x="51.0" y="484.0" type="curve"/>
      <point x="50.0" y="484.0"/>
      <point x="50.0" y="483.0"/>
      <point x="50.0" y="482.0" type="curve"/>
      <point x="50.0" y="480.0" type="line" smooth="yes"/>
      <point x="50.0" y="20.0" type="line" smooth="yes"/>
      <point x="50.0" y="9.0"/>
      <point x="59.0" y="0.0"/>
      <point x="70.0" y="0.0" type="curve" smooth="yes"/>
      <point x="81.0" y="0.0"/>
      <point x="90.0" y="9.0"/>
      <point x="90.0" y="20.0" type="curve" smooth="yes"/>
      <point x="90.0" y="389.0" type="line"/>
      <point x="261.0" y="14.0" type="line"/>
      <point x="262.0" y="12.0"/>
      <point x="263.0" y="10.0"/>
      <point x="264.0" y="8.0" type="curve"/>
      <point x="263.0" y="11.0"/>
      <point x="263.0" y="9.0"/>
      <point x="264.0" y="8.0" type="curve"/>
      <point x="265.0" y="7.0"/>
      <point x="266.0" y="6.0"/>
      <point x="267.0" y="5.0" type="curve"/>
      <point x="268.0" y="4.0"/>
      <point x="268.0" y="4.0"/>
      <point x="268.0" y="4.0" type="curve"/>
      <point x="269.0" y="3.0"/>
      <point x="270.0" y="3.0"/>
      <point x="271.0" y="2.0" type="curve"/>
      <point x="272.0" y="2.0"/>
      <point x="273.0" y="1.0"/>
      <point x="273.0" y="1.0" type="curve"/>
      <point x="279.0" y="0.0"/>
      <point x="277.0" y="0.0"/>
      <point x="276.0" y="1.0" type="curve"/>
      <point x="277.0" y="0.0"/>
      <point x="278.0" y="0.0"/>
      <point x="278.0" y="0.0" type="curve"/>
    </contour>
  </outline>
</glyph>
<glyph name="q" format="1">
  <advance width="350"/>
  <unicode hex="0071"/>
  <outline>
    <contour>
      <point x="157.0" y="242.0" type="curve" smooth="yes"/>
      <point x="249.0" y="40.0" type="line"/>
      <point x="90.0" y="40.0" type="line"/>
      <point x="90.0" y="460.0" type="line"/>
      <point x="260.0" y="460.0" type="line"/>
      <point x="260.0" y="111.0" type="line"/>
      <point x="193.0" y="258.0" type="line" smooth="yes"/>
      <point x="189.0" y="268.0"/>
      <point x="177.0" y="273.0"/>
      <point x="167.0" y="268.0" type="curve" smooth="yes"/>
      <point x="157.0" y="264.0"/>
      <point x="152.0" y="252.0"/>
    </contour>
    <contour>
      <point x="280.0" y="0.0" type="line" smooth="yes"/>
      <point x="282.0" y="0.0" type="line"/>
      <point x="286.0" y="1.0"/>
      <point x="285.0" y="1.0"/>
      <point x="283.0" y="0.0" type="curve"/>
      <point x="284.0" y="0.0"/>
      <point x="288.0" y="1.0"/>
      <point x="292.0" y="4.0" type="curve"/>
      <point x="289.0" y="3.0"/>
      <point x="291.0" y="3.0"/>
      <point x="292.0" y="4.0" type="curve"/>
      <point x="293.0" y="5.0"/>
      <point x="294.0" y="6.0"/>
      <point x="295.0" y="7.0" type="curve"/>
      <point x="295.0" y="7.0"/>
      <point x="296.0" y="8.0"/>
      <point x="296.0" y="8.0" type="curve"/>
      <point x="297.0" y="9.0"/>
      <point x="297.0" y="10.0"/>
      <point x="298.0" y="11.0" type="curve"/>
      <point x="298.0" y="11.0"/>
      <point x="298.0" y="12.0"/>
      <point x="299.0" y="13.0" type="curve"/>
      <point x="300.0" y="18.0"/>
      <point x="300.0" y="17.0"/>
      <point x="299.0" y="16.0" type="curve"/>
      <point x="300.0" y="16.0"/>
      <point x="300.0" y="17.0"/>
      <point x="300.0" y="18.0" type="curve"/>
      <point x="300.0" y="20.0" type="line" smooth="yes"/>
      <point x="300.0" y="480.0" type="line" smooth="yes"/>
      <point x="300.0" y="491.0"/>
      <point x="291.0" y="500.0"/>
      <point x="280.0" y="500.0" type="curve" smooth="yes"/>
      <point x="70.0" y="500.0" type="line" smooth="yes"/>
      <point x="59.0" y="500.0"/>
      <point x="50.0" y="491.0"/>
      <point x="50.0" y="480.0" type="curve" smooth="yes"/>
      <point x="50.0" y="20.0" type="line" smooth="yes"/>
      <point x="50.0" y="9.0"/>
      <point x="59.0" y="0.0"/>
      <point x="70.0" y="0.0" type="curve" smooth="yes"/>
    </contour>
  </outline>
</glyph>
<glyph name="r" format="1">
  <advance width="350"/>
  <unicode hex="0072"/>
  <outline>
    <contour>
      <point x="249.0" y="460.0" type="line"/>
      <point x="162.0" y="270.0" type="line"/>
      <point x="90.0" y="270.0" type="line"/>
      <point x="90.0" y="460.0" type="line"/>
    </contour>
    <contour>
      <point x="70.0" y="0.0" type="curve" smooth="yes"/>
      <point x="81.0" y="0.0"/>
      <point x="90.0" y="9.0"/>
      <point x="90.0" y="20.0" type="curve" smooth="yes"/>
      <point x="90.0" y="230.0" type="line"/>
      <point x="162.0" y="230.0" type="line"/>
      <point x="262.0" y="12.0" type="line" smooth="yes"/>
      <point x="266.0" y="2.0"/>
      <point x="278.0" y="-3.0"/>
      <point x="288.0" y="2.0" type="curve" smooth="yes"/>
      <point x="298.0" y="6.0"/>
      <point x="303.0" y="18.0"/>
      <point x="298.0" y="28.0" type="curve" smooth="yes"/>
      <point x="197.0" y="250.0" type="line"/>
      <point x="297.0" y="469.0" type="line"/>
      <point x="298.0" y="471.0"/>
      <point x="299.0" y="473.0"/>
      <point x="299.0" y="476.0" type="curve"/>
      <point x="299.0" y="473.0"/>
      <point x="299.0" y="475.0"/>
      <point x="300.0" y="477.0" type="curve"/>
      <point x="300.0" y="480.0" type="line" smooth="yes"/>
      <point x="300.0" y="481.0" type="line"/>
      <point x="300.0" y="482.0"/>
      <point x="300.0" y="483.0"/>
      <point x="300.0" y="482.0" type="curve"/>
      <point x="300.0" y="482.0"/>
      <point x="300.0" y="484.0"/>
      <point x="299.0" y="486.0" type="curve"/>
      <point x="299.0" y="487.0"/>
      <point x="299.0" y="488.0"/>
      <point x="298.0" y="488.0" type="curve"/>
      <point x="298.0" y="489.0"/>
      <point x="297.0" y="490.0"/>
      <point x="297.0" y="491.0" type="curve"/>
      <point x="296.0" y="491.0"/>
      <point x="296.0" y="492.0"/>
      <point x="296.0" y="492.0" type="curve"/>
      <point x="295.0" y="493.0"/>
      <point x="294.0" y="494.0"/>
      <point x="293.0" y="495.0" type="curve"/>
      <point x="290.0" y="497.0"/>
      <point x="291.0" y="497.0"/>
      <point x="292.0" y="495.0" type="curve"/>
      <point x="290.0" y="498.0"/>
      <point x="287.0" y="499.0"/>
      <point x="284.0" y="499.0" type="curve"/>
      <point x="286.0" y="499.0"/>
      <point x="285.0" y="499.0"/>
      <point x="283.0" y="500.0" type="curve"/>
      <point x="280.0" y="500.0" type="line" smooth="yes"/>
      <point x="70.0" y="500.0" type="line" smooth="yes"/>
      <point x="59.0" y="500.0"/>
      <point x="50.0" y="491.0"/>
      <point x="50.0" y="480.0" type="curve" smooth="yes"/>
      <point x="50.0" y="20.0" type="line" smooth="yes"/>
      <point x="50.0" y="9.0"/>
      <point x="59.0" y="0.0"/>
    </contour>
  </outline>
</glyph>
<glyph name="v" format="1">
  <advance width="349.393509036"/>
  <unicode hex="0076"/>
  <outline>
    <contour>
      <point x="298.696754518" y="476.0" type="line" smooth="yes"/>
      <point x="301.696754518" y="486.0"/>
      <point x="294.696754518" y="497.0"/>
      <point x="283.696754518" y="499.0" type="curve" smooth="yes"/>
      <point x="273.696754518" y="502.0"/>
      <point x="262.696754518" y="495.0"/>
      <point x="260.696754518" y="484.0" type="curve" smooth="yes"/>
      <point x="174.696754518" y="107.0" type="line"/>
      <point x="88.6967545182" y="484.0" type="line" smooth="yes"/>
      <point x="86.6967545182" y="495.0"/>
      <point x="75.6967545182" y="502.0"/>
      <point x="65.6967545182" y="499.0" type="curve" smooth="yes"/>
      <point x="54.6967545182" y="497.0"/>
      <point x="47.6967545182" y="486.0"/>
      <point x="50.6967545182" y="476.0" type="curve" smooth="yes"/>
      <point x="155.696754518" y="18.0" type="line"/>
      <point x="155.696754518" y="13.0"/>
      <point x="157.696754518" y="10.0"/>
      <point x="159.696754518" y="8.0" type="curve"/>
      <point x="159.696754518" y="7.0"/>
      <point x="159.696754518" y="7.0"/>
      <point x="159.696754518" y="7.0" type="curve"/>
      <point x="160.696754518" y="6.0"/>
      <point x="161.696754518" y="6.0"/>
      <point x="161.696754518" y="5.0" type="curve"/>
      <point x="165.696754518" y="2.0"/>
      <point x="169.696754518" y="0.0"/>
      <point x="173.696754518" y="0.0" type="curve"/>
      <point x="176.696754518" y="-1.0"/>
      <point x="182.696754518" y="1.0"/>
      <point x="186.696754518" y="5.0" type="curve"/>
      <point x="186.696754518" y="5.0"/>
      <point x="187.696754518" y="5.0"/>
      <point x="187.696754518" y="5.0" type="curve"/>
      <point x="188.696754518" y="6.0"/>
      <point x="188.696754518" y="6.0"/>
      <point x="189.696754518" y="7.0" type="curve"/>
      <point x="192.696754518" y="10.0"/>
      <point x="193.696754518" y="14.0"/>
      <point x="194.696754518" y="19.0" type="curve"/>
    </contour>
  </outline>
</glyph>
<glyph name="x" format="1">
  <advance width="349.923048454"/>
  <unicode hex="0078"/>
  <outline>
    <contour>
      <point x="87.9615242271" y="12.0" type="curve" smooth="yes"/>
      <point x="174.961524227" y="203.0" type="line"/>
      <point x="261.961524227" y="12.0" type="line" smooth="yes"/>
      <point x="265.961524227" y="2.0"/>
      <point x="277.961524227" y="-3.0"/>
      <point x="287.961524227" y="2.0" type="curve" smooth="yes"/>
      <point x="297.961524227" y="6.0"/>
      <point x="302.961524227" y="18.0"/>
      <point x="297.961524227" y="28.0" type="curve" smooth="yes"/>
      <point x="196.961524227" y="250.0" type="line"/>
      <point x="297.961524227" y="472.0" type="line" smooth="yes"/>
      <point x="302.961524227" y="482.0"/>
      <point x="297.961524227" y="494.0"/>
      <point x="287.961524227" y="498.0" type="curve" smooth="yes"/>
      <point x="277.961524227" y="503.0"/>
      <point x="265.961524227" y="498.0"/>
      <point x="261.961524227" y="488.0" type="curve" smooth="yes"/>
      <point x="174.961524227" y="297.0" type="line"/>
      <point x="87.9615242271" y="488.0" type="line" smooth="yes"/>
      <point x="83.9615242271" y="498.0"/>
      <point x="71.9615242271" y="503.0"/>
      <point x="61.9615242271" y="498.0" type="curve" smooth="yes"/>
      <point x="51.9615242271" y="494.0"/>
      <point x="46.9615242271" y="482.0"/>
      <point x="51.9615242271" y="472.0" type="curve" smooth="yes"/>
      <point x="152.961524227" y="250.0" type="line"/>
      <point x="51.9615242271" y="28.0" type="line" smooth="yes"/>
      <point x="46.9615242271" y="18.0"/>
      <point x="51.9615242271" y="6.0"/>
      <point x="61.9615242271" y="2.0" type="curve" smooth="yes"/>
      <point x="71.9615242271" y="-3.0"/>
      <point x="83.9615242271" y="2.0"/>
    </contour>
  </outline>
</glyph>
<glyph name="y" format="1">
  <advance width="349.923048454"/>
  <unicode hex="0079"/>
  <outline>
    <contour>
      <point x="174.961524227" y="0.0" type="curve" smooth="yes"/>
      <point x="185.961524227" y="0.0"/>
      <point x="194.961524227" y="9.0"/>
      <point x="194.961524227" y="20.0" type="curve" smooth="yes"/>
      <point x="194.961524227" y="246.0" type="line"/>
      <point x="297.961524227" y="472.0" type="line" smooth="yes"/>
      <point x="302.961524227" y="482.0"/>
      <point x="297.961524227" y="494.0"/>
      <point x="287.961524227" y="498.0" type="curve" smooth="yes"/>
      <point x="277.961524227" y="503.0"/>
      <point x="265.961524227" y="498.0"/>
      <point x="261.961524227" y="488.0" type="curve" smooth="yes"/>
      <point x="174.961524227" y="297.0" type="line"/>
      <point x="87.9615242271" y="488.0" type="line" smooth="yes"/>
      <point x="83.9615242271" y="498.0"/>
      <point x="71.9615242271" y="503.0"/>
      <point x="61.9615242271" y="498.0" type="curve" smooth="yes"/>
      <point x="51.9615242271" y="494.0"/>
      <point x="46.9615242271" y="482.0"/>
      <point x="51.9615242271" y="472.0" type="curve" smooth="yes"/>
      <point x="154.961524227" y="246.0" type="line"/>
      <point x="154.961524227" y="20.0" type="line" smooth="yes"/>
      <point x="154.961524227" y="9.0"/>
      <point x="163.961524227" y="0.0"/>
    </contour>
  </outline>
</glyph>
<glyph name="z" format="1">
  <advance width="350"/>
  <unicode hex="007A"/>
  <outline>
    <contour>
      <point x="70.0" y="0.0" type="line" smooth="yes"/>
      <point x="280.0" y="0.0" type="line" smooth="yes"/>
      <point x="291.0" y="0.0"/>
      <point x="300.0" y="9.0"/>
      <point x="300.0" y="20.0" type="curve" smooth="yes"/>
      <point x="300.0" y="31.0"/>
      <point x="291.0" y="40.0"/>
      <point x="280.0" y="40.0" type="curve" smooth="yes"/>
      <point x="101.0" y="40.0" type="line"/>
      <point x="297.0" y="469.0" type="line"/>
      <point x="298.0" y="471.0"/>
      <point x="299.0" y="473.0"/>
      <point x="299.0" y="476.0" type="curve"/>
      <point x="299.0" y="473.0"/>
      <point x="299.0" y="475.0"/>
      <point x="300.0" y="477.0" type="curve"/>
      <point x="300.0" y="480.0" type="line" smooth="yes"/>
      <point x="300.0" y="481.0" type="line"/>
      <point x="300.0" y="482.0"/>
      <point x="300.0" y="483.0"/>
      <point x="300.0" y="482.0" type="curve"/>
      <point x="300.0" y="482.0"/>
      <point x="300.0" y="484.0"/>
      <point x="299.0" y="486.0" type="curve"/>
      <point x="299.0" y="487.0"/>
      <point x="299.0" y="488.0"/>
      <point x="298.0" y="488.0" type="curve"/>
      <point x="298.0" y="489.0"/>
      <point x="297.0" y="490.0"/>
      <point x="297.0" y="491.0" type="curve"/>
      <point x="296.0" y="491.0"/>
      <point x="296.0" y="492.0"/>
      <point x="296.0" y="492.0" type="curve"/>
      <point x="295.0" y="493.0"/>
      <point x="294.0" y="494.0"/>
      <point x="293.0" y="495.0" type="curve"/>
      <point x="290.0" y="497.0"/>
      <point x="291.0" y="497.0"/>
      <point x="292.0" y="495.0" type="curve"/>
      <point x="290.0" y="498.0"/>
      <point x="287.0" y="499.0"/>
      <point x="284.0" y="499.0" type="curve"/>
      <point x="286.0" y="499.0"/>
      <point x="285.0" y="499.0"/>
      <point x="283.0" y="500.0" type="curve"/>
      <point x="280.0" y="500.0" type="line" smooth="yes"/>
      <point x="70.0" y="500.0" type="line" smooth="yes"/>
      <point x="59.0" y="500.0"/>
      <point x="50.0" y="491.0"/>
      <point x="50.0" y="480.0" type="curve" smooth="yes"/>
      <point x="50.0" y="469.0"/>
      <point x="59.0" y="460.0"/>
      <point x="70.0" y="460.0" type="curve" smooth="yes"/>
      <point x="249.0" y="460.0" type="line"/>
      <point x="53.0" y="31.0" type="line"/>
      <point x="52.0" y="29.0"/>
      <point x="51.0" y="27.0"/>
      <point x="51.0" y="24.0" type="curve"/>
      <point x="51.0" y="27.0"/>
      <point x="51.0" y="25.0"/>
      <point x="50.0" y="23.0" type="curve"/>
      <point x="50.0" y="20.0" type="line" smooth="yes"/>
      <point x="50.0" y="19.0" type="line"/>
      <point x="50.0" y="18.0"/>
      <point x="50.0" y="17.0"/>
      <point x="50.0" y="18.0" type="curve"/>
      <point x="50.0" y="18.0"/>
      <point x="50.0" y="16.0"/>
      <point x="51.0" y="14.0" type="curve"/>
      <point x="51.0" y="13.0"/>
      <point x="51.0" y="12.0"/>
      <point x="52.0" y="12.0" type="curve"/>
      <point x="52.0" y="11.0"/>
      <point x="53.0" y="10.0"/>
      <point x="53.0" y="9.0" type="curve"/>
      <point x="54.0" y="9.0"/>
      <point x="54.0" y="8.0"/>
      <point x="54.0" y="8.0" type="curve"/>
      <point x="55.0" y="7.0"/>
      <point x="56.0" y="6.0"/>
      <point x="57.0" y="5.0" type="curve"/>
      <point x="60.0" y="3.0"/>
      <point x="59.0" y="3.0"/>
      <point x="58.0" y="5.0" type="curve"/>
      <point x="60.0" y="2.0"/>
      <point x="63.0" y="1.0"/>
      <point x="66.0" y="1.0" type="curve"/>
      <point x="64.0" y="1.0"/>
      <point x="65.0" y="1.0"/>
      <point x="67.0" y="0.0" type="curve"/>
    </contour>
  </outline>
</glyph>
<glyph name="braceleft" format="1">
  <advance width="350"/>
  <unicode hex="007B"/>
  <outline>
    <contour>
      <point x="70" y="0" type="curve" smooth="yes"/>
      <point x="175" y="0" type="line" smooth="yes"/>
      <point x="177" y="0" type="line"/>
      <point x="181" y="1"/>
      <point x="180" y="1"/>
      <point x="178" y="0" type="curve"/>
      <point x="179" y="0"/>
      <point x="183" y="1"/>
      <point x="187" y="4" type="curve"/>
      <point x="184" y="3"/>
      <point x="186" y="3"/>
      <point x="187" y="4" type="curve"/>
      <point x="188" y="5"/>
      <point x="189" y="6"/>
      <point x="190" y="7" type="curve"/>
      <point x="190" y="7"/>
      <point x="191" y="8"/>
      <point x="191" y="8" type="curve"/>
      <point x="192" y="9"/>
      <point x="192" y="10"/>
      <point x="193" y="11" type="curve"/>
      <point x="193" y="11"/>
      <point x="193" y="12"/>
      <point x="194" y="13" type="curve"/>
      <point x="195" y="18"/>
      <point x="195" y="17"/>
      <point x="194" y="16" type="curve"/>
      <point x="195" y="16"/>
      <point x="195" y="17"/>
      <point x="195" y="18" type="curve"/>
      <point x="195" y="20" type="line" smooth="yes"/>
      <point x="195" y="22" type="line"/>
      <point x="194" y="26"/>
      <point x="194" y="25"/>
      <point x="195" y="23" type="curve"/>
      <point x="195" y="24"/>
      <point x="194" y="28"/>
      <point x="192" y="30" type="curve"/>
      <point x="92" y="250" type="line"/>
      <point x="192" y="469" type="line"/>
      <point x="193" y="471"/>
      <point x="194" y="473"/>
      <point x="194" y="476" type="curve"/>
      <point x="194" y="473"/>
      <point x="194" y="475"/>
      <point x="195" y="477" type="curve"/>
      <point x="195" y="480" type="line" smooth="yes"/>
      <point x="195" y="481" type="line"/>
      <point x="195" y="482"/>
      <point x="195" y="483"/>
      <point x="195" y="482" type="curve"/>
      <point x="195" y="482"/>
      <point x="195" y="484"/>
      <point x="194" y="486" type="curve"/>
      <point x="194" y="487"/>
      <point x="194" y="488"/>
      <point x="193" y="488" type="curve"/>
      <point x="193" y="489"/>
      <point x="192" y="490"/>
      <point x="192" y="491" type="curve"/>
      <point x="191" y="491"/>
      <point x="191" y="492"/>
      <point x="191" y="492" type="curve"/>
      <point x="190" y="493"/>
      <point x="189" y="494"/>
      <point x="188" y="495" type="curve"/>
      <point x="185" y="497"/>
      <point x="186" y="497"/>
      <point x="187" y="495" type="curve"/>
      <point x="185" y="498"/>
      <point x="182" y="499"/>
      <point x="179" y="499" type="curve"/>
      <point x="181" y="499"/>
      <point x="180" y="499"/>
      <point x="178" y="500" type="curve"/>
      <point x="175" y="500" type="line" smooth="yes"/>
      <point x="70" y="500" type="line" smooth="yes"/>
      <point x="59" y="500"/>
      <point x="50" y="491"/>
      <point x="50" y="480" type="curve" smooth="yes"/>
      <point x="50" y="20" type="line" smooth="yes"/>
      <point x="50" y="9"/>
      <point x="59" y="0"/>
    </contour>
    <contour>
      <point x="144" y="460" type="line"/>
      <point x="90" y="341" type="line"/>
      <point x="90" y="460" type="line"/>
    </contour>
    <contour>
      <point x="144" y="40" type="line"/>
      <point x="90" y="40" type="line"/>
      <point x="90" y="159" type="line"/>
    </contour>
  </outline>
</glyph>
<glyph name="bar" format="1">
  <advance width="350"/>
  <unicode hex="007C"/>
  <outline>
    <contour>
      <point x="175" y="500" type="curve" smooth="yes"/>
      <point x="164" y="500"/>
      <point x="155" y="491"/>
      <point x="155" y="480" type="curve" smooth="yes"/>
      <point x="155" y="20" type="line" smooth="yes"/>
      <point x="155" y="9"/>
      <point x="164" y="0"/>
      <point x="175" y="0" type="curve" smooth="yes"/>
      <point x="186" y="0"/>
      <point x="195" y="9"/>
      <point x="195" y="20" type="curve" smooth="yes"/>
      <point x="195" y="480" type="line" smooth="yes"/>
      <point x="195" y="491"/>
      <point x="186" y="500"/>
    </contour>
  </outline>
</glyph>
<glyph name="braceright" format="1">
  <advance width="350"/>
  <unicode hex="007D"/>
  <outline>
    <contour>
      <point x="260" y="460" type="line"/>
      <point x="260" y="341" type="line"/>
      <point x="206" y="460" type="line"/>
    </contour>
    <contour>
      <point x="260" y="40" type="line"/>
      <point x="206" y="40" type="line"/>
      <point x="260" y="159" type="line"/>
    </contour>
    <contour>
      <point x="280" y="0" type="curve" smooth="yes"/>
      <point x="291" y="0"/>
      <point x="300" y="9"/>
      <point x="300" y="20" type="curve" smooth="yes"/>
      <point x="300" y="480" type="line" smooth="yes"/>
      <point x="300" y="491"/>
      <point x="291" y="500"/>
      <point x="280" y="500" type="curve" smooth="yes"/>
      <point x="175" y="500" type="line" smooth="yes"/>
      <point x="173" y="500" type="line"/>
      <point x="169" y="499"/>
      <point x="170" y="499"/>
      <point x="172" y="500" type="curve"/>
      <point x="171" y="500"/>
      <point x="167" y="499"/>
      <point x="163" y="496" type="curve"/>
      <point x="166" y="497"/>
      <point x="164" y="497"/>
      <point x="163" y="496" type="curve"/>
      <point x="162" y="495"/>
      <point x="161" y="494"/>
      <point x="160" y="493" type="curve"/>
      <point x="160" y="493"/>
      <point x="159" y="492"/>
      <point x="159" y="492" type="curve"/>
      <point x="158" y="491"/>
      <point x="158" y="490"/>
      <point x="157" y="489" type="curve"/>
      <point x="157" y="489"/>
      <point x="157" y="488"/>
      <point x="156" y="487" type="curve"/>
      <point x="155" y="482"/>
      <point x="155" y="483"/>
      <point x="156" y="484" type="curve"/>
      <point x="155" y="484"/>
      <point x="155" y="483"/>
      <point x="155" y="482" type="curve"/>
      <point x="155" y="480" type="line" smooth="yes"/>
      <point x="155" y="478" type="line"/>
      <point x="156" y="474"/>
      <point x="156" y="475"/>
      <point x="155" y="477" type="curve"/>
      <point x="155" y="476"/>
      <point x="156" y="472"/>
      <point x="158" y="470" type="curve"/>
      <point x="258" y="250" type="line"/>
      <point x="158" y="31" type="line"/>
      <point x="157" y="29"/>
      <point x="156" y="27"/>
      <point x="156" y="24" type="curve"/>
      <point x="156" y="27"/>
      <point x="156" y="25"/>
      <point x="155" y="23" type="curve"/>
      <point x="155" y="20" type="line" smooth="yes"/>
      <point x="155" y="19" type="line"/>
      <point x="155" y="18"/>
      <point x="155" y="17"/>
      <point x="155" y="18" type="curve"/>
      <point x="155" y="18"/>
      <point x="155" y="16"/>
      <point x="156" y="14" type="curve"/>
      <point x="156" y="13"/>
      <point x="156" y="12"/>
      <point x="157" y="12" type="curve"/>
      <point x="157" y="11"/>
      <point x="158" y="10"/>
      <point x="158" y="9" type="curve"/>
      <point x="159" y="9"/>
      <point x="159" y="8"/>
      <point x="159" y="8" type="curve"/>
      <point x="160" y="7"/>
      <point x="161" y="6"/>
      <point x="162" y="5" type="curve"/>
      <point x="165" y="3"/>
      <point x="164" y="3"/>
      <point x="163" y="5" type="curve"/>
      <point x="165" y="2"/>
      <point x="168" y="1"/>
      <point x="171" y="1" type="curve"/>
      <point x="169" y="1"/>
      <point x="170" y="1"/>
      <point x="172" y="0" type="curve"/>
      <point x="277" y="0"/>
      <point x="279" y="0"/>
    </contour>
  </outline>
</glyph>
<glyph name="cent" format="1">
  <advance width="350"/>
  <unicode hex="00A2"/>
  <outline>
    <contour>
      <point x="280" y="0" type="line" smooth="yes"/>
      <point x="291" y="0"/>
      <point x="300" y="9"/>
      <point x="300" y="20" type="curve" smooth="yes"/>
      <point x="300" y="31"/>
      <point x="291" y="40"/>
      <point x="280" y="40" type="curve" smooth="yes"/>
      <point x="195" y="40" type="line"/>
      <point x="195" y="460" type="line"/>
      <point x="280" y="460" type="line" smooth="yes"/>
      <point x="291" y="460"/>
      <point x="300" y="469"/>
      <point x="300" y="480" type="curve" smooth="yes"/>
      <point x="300" y="491"/>
      <point x="291" y="500"/>
      <point x="280" y="500" type="curve" smooth="yes"/>
      <point x="70" y="500" type="line" smooth="yes"/>
      <point x="59" y="500"/>
      <point x="50" y="491"/>
      <point x="50" y="480" type="curve" smooth="yes"/>
      <point x="50" y="20" type="line" smooth="yes"/>
      <point x="50" y="9"/>
      <point x="59" y="0"/>
      <point x="70" y="0" type="curve" smooth="yes"/>
    </contour>
    <contour>
      <point x="155" y="460" type="line"/>
      <point x="155" y="40" type="line"/>
      <point x="90" y="40" type="line"/>
      <point x="90" y="460" type="line"/>
    </contour>
  </outline>
</glyph>
<glyph name="yen" format="1">
  <advance width="350"/>
  <unicode hex="00A5"/>
  <outline>
    <contour>
      <point x="175" y="0" type="curve" smooth="yes"/>
      <point x="186" y="0"/>
      <point x="195" y="9"/>
      <point x="195" y="20" type="curve" smooth="yes"/>
      <point x="195" y="230" type="line"/>
      <point x="280" y="230" type="line" smooth="yes"/>
      <point x="291" y="230"/>
      <point x="300" y="239"/>
      <point x="300" y="250" type="curve" smooth="yes"/>
      <point x="300" y="261"/>
      <point x="291" y="270"/>
      <point x="280" y="270" type="curve" smooth="yes"/>
      <point x="206" y="270" type="line"/>
      <point x="298" y="472" type="line" smooth="yes"/>
      <point x="303" y="482"/>
      <point x="298" y="494"/>
      <point x="288" y="498" type="curve" smooth="yes"/>
      <point x="278" y="503"/>
      <point x="266" y="498"/>
      <point x="262" y="488" type="curve" smooth="yes"/>
      <point x="175" y="297" type="line"/>
      <point x="88" y="488" type="line" smooth="yes"/>
      <point x="84" y="498"/>
      <point x="72" y="503"/>
      <point x="62" y="498" type="curve" smooth="yes"/>
      <point x="52" y="494"/>
      <point x="47" y="482"/>
      <point x="52" y="472" type="curve" smooth="yes"/>
      <point x="144" y="270" type="line"/>
      <point x="70" y="270" type="line" smooth="yes"/>
      <point x="59" y="270"/>
      <point x="50" y="261"/>
      <point x="50" y="250" type="curve" smooth="yes"/>
      <point x="50" y="239"/>
      <point x="59" y="230"/>
      <point x="70" y="230" type="curve" smooth="yes"/>
      <point x="155" y="230" type="line"/>
      <point x="155" y="20" type="line" smooth="yes"/>
      <point x="155" y="9"/>
      <point x="164" y="0"/>
    </contour>
  </outline>
</glyph>
<glyph name="guillemotleft" format="1">
  <advance width="349.961524227"/>
  <unicode hex="00AB"/>
  <outline>
    <contour>
      <point x="288" y="2" type="curve" smooth="yes"/>
      <point x="298" y="6"/>
      <point x="303" y="18"/>
      <point x="298" y="28" type="curve" smooth="yes"/>
      <point x="197" y="250" type="line"/>
      <point x="298" y="472" type="line" smooth="yes"/>
      <point x="303" y="482"/>
      <point x="298" y="494"/>
      <point x="288" y="498" type="curve" smooth="yes"/>
      <point x="278" y="503"/>
      <point x="266" y="498"/>
      <point x="262" y="488" type="curve" smooth="yes"/>
      <point x="162" y="270" type="line"/>
      <point x="101" y="270" type="line"/>
      <point x="193" y="472" type="line" smooth="yes"/>
      <point x="198" y="482"/>
      <point x="193" y="494"/>
      <point x="183" y="498" type="curve" smooth="yes"/>
      <point x="173" y="503"/>
      <point x="161" y="498"/>
      <point x="157" y="488" type="curve" smooth="yes"/>
      <point x="53" y="261" type="line"/>
      <point x="53" y="260"/>
      <point x="53" y="260"/>
      <point x="52" y="259" type="curve"/>
      <point x="52" y="259"/>
      <point x="52" y="258"/>
      <point x="51" y="257" type="curve"/>
      <point x="50" y="252"/>
      <point x="50" y="253"/>
      <point x="51" y="254" type="curve"/>
      <point x="51" y="254" type="line"/>
      <point x="51" y="257"/>
      <point x="51" y="255"/>
      <point x="51" y="254" type="curve"/>
      <point x="50" y="254"/>
      <point x="50" y="253"/>
      <point x="50" y="252" type="curve"/>
      <point x="50" y="250" type="line" smooth="yes"/>
      <point x="50" y="249" type="line"/>
      <point x="50" y="248"/>
      <point x="50" y="247"/>
      <point x="50" y="248" type="curve"/>
      <point x="51" y="244"/>
      <point x="51" y="245"/>
      <point x="50" y="247" type="curve"/>
      <point x="50" y="248"/>
      <point x="50" y="246"/>
      <point x="51" y="244" type="curve"/>
      <point x="51" y="243"/>
      <point x="51" y="242"/>
      <point x="52" y="242" type="curve"/>
      <point x="52" y="241"/>
      <point x="53" y="240"/>
      <point x="53" y="240" type="curve"/>
      <point x="157" y="12" type="line" smooth="yes"/>
      <point x="161" y="2"/>
      <point x="173" y="-3"/>
      <point x="183" y="2" type="curve" smooth="yes"/>
      <point x="193" y="6"/>
      <point x="198" y="18"/>
      <point x="193" y="28" type="curve" smooth="yes"/>
      <point x="101" y="230" type="line"/>
      <point x="162" y="230" type="line"/>
      <point x="262" y="12" type="line" smooth="yes"/>
      <point x="266" y="2"/>
      <point x="278" y="-3"/>
    </contour>
  </outline>
</glyph>
<glyph name="paragraph" format="1">
  <advance width="350"/>
  <unicode hex="00B6"/>
  <outline>
    <contour>
      <point x="280" y="0" type="curve" smooth="yes"/>
      <point x="291" y="0"/>
      <point x="300" y="9"/>
      <point x="300" y="20" type="curve" smooth="yes"/>
      <point x="300" y="480" type="line" smooth="yes"/>
      <point x="300" y="491"/>
      <point x="291" y="500"/>
      <point x="280" y="500" type="curve" smooth="yes"/>
      <point x="70" y="500" type="line" smooth="yes"/>
      <point x="59" y="500"/>
      <point x="50" y="491"/>
      <point x="50" y="480" type="curve" smooth="yes"/>
      <point x="50" y="250" type="line" smooth="yes"/>
      <point x="50" y="239"/>
      <point x="59" y="230"/>
      <point x="70" y="230" type="curve" smooth="yes"/>
      <point x="155" y="230" type="line"/>
      <point x="155" y="20" type="line" smooth="yes"/>
      <point x="155" y="9"/>
      <point x="164" y="0"/>
      <point x="175" y="0" type="curve" smooth="yes"/>
      <point x="186" y="0"/>
      <point x="195" y="9"/>
      <point x="195" y="20" type="curve" smooth="yes"/>
      <point x="195" y="230" type="line"/>
      <point x="260" y="230" type="line"/>
      <point x="260" y="20" type="line" smooth="yes"/>
      <point x="260" y="9"/>
      <point x="269" y="0"/>
    </contour>
    <contour>
      <point x="260" y="460" type="line"/>
      <point x="260" y="270" type="line"/>
      <point x="195" y="270" type="line"/>
      <point x="195" y="460" type="line"/>
    </contour>
    <contour>
      <point x="155" y="460" type="line"/>
      <point x="155" y="270" type="line"/>
      <point x="90" y="270" type="line"/>
      <point x="90" y="460" type="line"/>
    </contour>
  </outline>
</glyph>
<glyph name="guillemotright" format="1">
  <advance width="349.961524227"/>
  <unicode hex="00BB"/>
  <outline>
    <contour>
      <point x="192.961524227" y="12" type="curve" smooth="yes"/>
      <point x="296.961524227" y="239" type="line"/>
      <point x="296.961524227" y="240"/>
      <point x="296.961524227" y="240"/>
      <point x="297.961524227" y="241" type="curve"/>
      <point x="297.961524227" y="241"/>
      <point x="297.961524227" y="242"/>
      <point x="298.961524227" y="243" type="curve"/>
      <point x="299.961524227" y="248"/>
      <point x="299.961524227" y="247"/>
      <point x="298.961524227" y="246" type="curve"/>
      <point x="298.961524227" y="246" type="line"/>
      <point x="298.961524227" y="243"/>
      <point x="298.961524227" y="245"/>
      <point x="298.961524227" y="246" type="curve"/>
      <point x="299.961524227" y="246"/>
      <point x="299.961524227" y="247"/>
      <point x="299.961524227" y="248" type="curve"/>
      <point x="299.961524227" y="250" type="line" smooth="yes"/>
      <point x="299.961524227" y="251" type="line"/>
      <point x="299.961524227" y="252"/>
      <point x="299.961524227" y="253"/>
      <point x="299.961524227" y="252" type="curve"/>
      <point x="298.961524227" y="256"/>
      <point x="298.961524227" y="255"/>
      <point x="299.961524227" y="253" type="curve"/>
      <point x="299.961524227" y="252"/>
      <point x="299.961524227" y="254"/>
      <point x="298.961524227" y="256" type="curve"/>
      <point x="298.961524227" y="257"/>
      <point x="298.961524227" y="258"/>
      <point x="297.961524227" y="258" type="curve"/>
      <point x="297.961524227" y="259"/>
      <point x="296.961524227" y="260"/>
      <point x="296.961524227" y="260" type="curve"/>
      <point x="192.961524227" y="488" type="line" smooth="yes"/>
      <point x="188.961524227" y="498"/>
      <point x="176.961524227" y="503"/>
      <point x="166.961524227" y="498" type="curve" smooth="yes"/>
      <point x="156.961524227" y="494"/>
      <point x="151.961524227" y="482"/>
      <point x="156.961524227" y="472" type="curve" smooth="yes"/>
      <point x="248.961524227" y="270" type="line"/>
      <point x="187.961524227" y="270" type="line"/>
      <point x="87.9615242271" y="488" type="line" smooth="yes"/>
      <point x="83.9615242271" y="498"/>
      <point x="71.9615242271" y="503"/>
      <point x="61.9615242271" y="498" type="curve" smooth="yes"/>
      <point x="51.9615242271" y="494"/>
      <point x="46.9615242271" y="482"/>
      <point x="51.9615242271" y="472" type="curve" smooth="yes"/>
      <point x="152.961524227" y="250" type="line"/>
      <point x="51.9615242271" y="28" type="line" smooth="yes"/>
      <point x="46.9615242271" y="18"/>
      <point x="51.9615242271" y="6"/>
      <point x="61.9615242271" y="2" type="curve" smooth="yes"/>
      <point x="71.9615242271" y="-3"/>
      <point x="83.9615242271" y="2"/>
      <point x="87.9615242271" y="12" type="curve" smooth="yes"/>
      <point x="187.961524227" y="230" type="line"/>
      <point x="248.961524227" y="230" type="line"/>
      <point x="156.961524227" y="28" type="line" smooth="yes"/>
      <point x="151.961524227" y="18"/>
      <point x="156.961524227" y="6"/>
      <point x="166.961524227" y="2" type="curve" smooth="yes"/>
      <point x="176.961524227" y="-3"/>
      <point x="188.961524227" y="2"/>
    </contour>
  </outline>
</glyph>
